<svg width="1363" height="163" viewBox="0 0 1363 163" fill="none" xmlns="http://www.w3.org/2000/svg">
<path d="M0 15C0 6.71573 6.71573 0 15 0H37V163H15C6.71573 163 0 156.284 0 148V15Z" fill="#424242"/>
<rect width="1097" height="163" transform="translate(37)" fill="#F0F0F0"/>
<path d="M101.906 53.9219L94.3945 51.2383V48.0859L104.602 52.375V54.6367L101.906 53.9219ZM94.3945 56.1719L101.918 53.4297L104.602 52.7852V55.0352L94.3945 59.3242V56.1719ZM112.898 43.9375H119.262C120.566 43.9375 121.688 44.1328 122.625 44.5234C123.57 44.9141 124.297 45.4922 124.805 46.2578C125.312 47.0234 125.566 47.9648 125.566 49.082C125.566 49.9961 125.41 50.7812 125.098 51.4375C124.793 52.0859 124.359 52.6289 123.797 53.0664C123.242 53.4961 122.59 53.8398 121.84 54.0977L120.727 54.6836H115.195L115.172 51.9414H119.285C119.902 51.9414 120.414 51.832 120.82 51.6133C121.227 51.3945 121.531 51.0898 121.734 50.6992C121.945 50.3086 122.051 49.8555 122.051 49.3398C122.051 48.793 121.949 48.3203 121.746 47.9219C121.543 47.5234 121.234 47.2188 120.82 47.0078C120.406 46.7969 119.887 46.6914 119.262 46.6914H116.414V61H112.898V43.9375ZM122.438 61L118.547 53.3945L122.262 53.3711L126.199 60.8359V61H122.438ZM133.898 61.2344C132.914 61.2344 132.031 61.0781 131.25 60.7656C130.469 60.4453 129.805 60.0039 129.258 59.4414C128.719 58.8789 128.305 58.2266 128.016 57.4844C127.727 56.7344 127.582 55.9375 127.582 55.0938V54.625C127.582 53.6641 127.719 52.7852 127.992 51.9883C128.266 51.1914 128.656 50.5 129.164 49.9141C129.68 49.3281 130.305 48.8789 131.039 48.5664C131.773 48.2461 132.602 48.0859 133.523 48.0859C134.422 48.0859 135.219 48.2344 135.914 48.5312C136.609 48.8281 137.191 49.25 137.66 49.7969C138.137 50.3438 138.496 51 138.738 51.7656C138.98 52.5234 139.102 53.3672 139.102 54.2969V55.7031H129.023V53.4531H135.785V53.1953C135.785 52.7266 135.699 52.3086 135.527 51.9414C135.363 51.5664 135.113 51.2695 134.777 51.0508C134.441 50.832 134.012 50.7227 133.488 50.7227C133.043 50.7227 132.66 50.8203 132.34 51.0156C132.02 51.2109 131.758 51.4844 131.555 51.8359C131.359 52.1875 131.211 52.6016 131.109 53.0781C131.016 53.5469 130.969 54.0625 130.969 54.625V55.0938C130.969 55.6016 131.039 56.0703 131.18 56.5C131.328 56.9297 131.535 57.3008 131.801 57.6133C132.074 57.9258 132.402 58.168 132.785 58.3398C133.176 58.5117 133.617 58.5977 134.109 58.5977C134.719 58.5977 135.285 58.4805 135.809 58.2461C136.34 58.0039 136.797 57.6406 137.18 57.1562L138.82 58.9375C138.555 59.3203 138.191 59.6875 137.73 60.0391C137.277 60.3906 136.73 60.6797 136.09 60.9062C135.449 61.125 134.719 61.2344 133.898 61.2344ZM146.262 58.5977C146.676 58.5977 147.043 58.5195 147.363 58.3633C147.684 58.1992 147.934 57.9727 148.113 57.6836C148.301 57.3867 148.398 57.0391 148.406 56.6406H151.582C151.574 57.5312 151.336 58.3242 150.867 59.0195C150.398 59.707 149.77 60.25 148.98 60.6484C148.191 61.0391 147.309 61.2344 146.332 61.2344C145.348 61.2344 144.488 61.0703 143.754 60.7422C143.027 60.4141 142.422 59.9609 141.938 59.3828C141.453 58.7969 141.09 58.1172 140.848 57.3438C140.605 56.5625 140.484 55.7266 140.484 54.8359V54.4961C140.484 53.5977 140.605 52.7617 140.848 51.9883C141.09 51.207 141.453 50.5273 141.938 49.9492C142.422 49.3633 143.027 48.9062 143.754 48.5781C144.48 48.25 145.332 48.0859 146.309 48.0859C147.348 48.0859 148.258 48.2852 149.039 48.6836C149.828 49.082 150.445 49.6523 150.891 50.3945C151.344 51.1289 151.574 52 151.582 53.0078H148.406C148.398 52.5859 148.309 52.2031 148.137 51.8594C147.973 51.5156 147.73 51.2422 147.41 51.0391C147.098 50.8281 146.711 50.7227 146.25 50.7227C145.758 50.7227 145.355 50.8281 145.043 51.0391C144.73 51.2422 144.488 51.5234 144.316 51.8828C144.145 52.2344 144.023 52.6367 143.953 53.0898C143.891 53.5352 143.859 54.0039 143.859 54.4961V54.8359C143.859 55.3281 143.891 55.8008 143.953 56.2539C144.016 56.707 144.133 57.1094 144.305 57.4609C144.484 57.8125 144.73 58.0898 145.043 58.293C145.355 58.4961 145.762 58.5977 146.262 58.5977ZM157.102 48.3203V61H153.715V48.3203H157.102ZM153.504 45.0156C153.504 44.5234 153.676 44.1172 154.02 43.7969C154.363 43.4766 154.824 43.3164 155.402 43.3164C155.973 43.3164 156.43 43.4766 156.773 43.7969C157.125 44.1172 157.301 44.5234 157.301 45.0156C157.301 45.5078 157.125 45.9141 156.773 46.2344C156.43 46.5547 155.973 46.7148 155.402 46.7148C154.824 46.7148 154.363 46.5547 154.02 46.2344C153.676 45.9141 153.504 45.5078 153.504 45.0156ZM167.379 58.2344V43H170.777V61H167.719L167.379 58.2344ZM159.363 54.8125V54.5664C159.363 53.5977 159.473 52.7188 159.691 51.9297C159.91 51.1328 160.23 50.4492 160.652 49.8789C161.074 49.3086 161.594 48.8672 162.211 48.5547C162.828 48.2422 163.531 48.0859 164.32 48.0859C165.062 48.0859 165.711 48.2422 166.266 48.5547C166.828 48.8672 167.305 49.3125 167.695 49.8906C168.094 50.4609 168.414 51.1367 168.656 51.918C168.898 52.6914 169.074 53.5391 169.184 54.4609V55C169.074 55.8828 168.898 56.7031 168.656 57.4609C168.414 58.2188 168.094 58.8828 167.695 59.4531C167.305 60.0156 166.828 60.4531 166.266 60.7656C165.703 61.0781 165.047 61.2344 164.297 61.2344C163.508 61.2344 162.805 61.0742 162.188 60.7539C161.578 60.4336 161.062 59.9844 160.641 59.4062C160.227 58.8281 159.91 58.1484 159.691 57.3672C159.473 56.5859 159.363 55.7344 159.363 54.8125ZM162.738 54.5664V54.8125C162.738 55.3359 162.777 55.8242 162.855 56.2773C162.941 56.7305 163.078 57.1328 163.266 57.4844C163.461 57.8281 163.711 58.0977 164.016 58.293C164.328 58.4805 164.707 58.5742 165.152 58.5742C165.73 58.5742 166.207 58.4453 166.582 58.1875C166.957 57.9219 167.242 57.5586 167.438 57.0977C167.641 56.6367 167.758 56.1055 167.789 55.5039V53.9688C167.766 53.4766 167.695 53.0352 167.578 52.6445C167.469 52.2461 167.305 51.9062 167.086 51.625C166.875 51.3438 166.609 51.125 166.289 50.9688C165.977 50.8125 165.605 50.7344 165.176 50.7344C164.738 50.7344 164.363 50.8359 164.051 51.0391C163.738 51.2344 163.484 51.5039 163.289 51.8477C163.102 52.1914 162.961 52.5977 162.867 53.0664C162.781 53.5273 162.738 54.0273 162.738 54.5664ZM176.977 48.3203V61H173.59V48.3203H176.977ZM173.379 45.0156C173.379 44.5234 173.551 44.1172 173.895 43.7969C174.238 43.4766 174.699 43.3164 175.277 43.3164C175.848 43.3164 176.305 43.4766 176.648 43.7969C177 44.1172 177.176 44.5234 177.176 45.0156C177.176 45.5078 177 45.9141 176.648 46.2344C176.305 46.5547 175.848 46.7148 175.277 46.7148C174.699 46.7148 174.238 46.5547 173.895 46.2344C173.551 45.9141 173.379 45.5078 173.379 45.0156ZM184.078 58.5391L186.891 48.3203H190.418L186.141 61H184.008L184.078 58.5391ZM182.145 48.3203L184.969 58.5508L185.027 61H182.883L178.605 48.3203H182.145ZM195.492 48.3203V61H192.105V48.3203H195.492ZM191.895 45.0156C191.895 44.5234 192.066 44.1172 192.41 43.7969C192.754 43.4766 193.215 43.3164 193.793 43.3164C194.363 43.3164 194.82 43.4766 195.164 43.7969C195.516 44.1172 195.691 44.5234 195.691 45.0156C195.691 45.5078 195.516 45.9141 195.164 46.2344C194.82 46.5547 194.363 46.7148 193.793 46.7148C193.215 46.7148 192.754 46.5547 192.41 46.2344C192.066 45.9141 191.895 45.5078 191.895 45.0156ZM205.137 57.4961C205.137 57.2539 205.066 57.0352 204.926 56.8398C204.785 56.6445 204.523 56.4648 204.141 56.3008C203.766 56.1289 203.223 55.9727 202.512 55.832C201.871 55.6914 201.273 55.5156 200.719 55.3047C200.172 55.0859 199.695 54.8242 199.289 54.5195C198.891 54.2148 198.578 53.8555 198.352 53.4414C198.125 53.0195 198.012 52.5391 198.012 52C198.012 51.4688 198.125 50.9688 198.352 50.5C198.586 50.0312 198.918 49.6172 199.348 49.2578C199.785 48.8906 200.316 48.6055 200.941 48.4023C201.574 48.1914 202.285 48.0859 203.074 48.0859C204.176 48.0859 205.121 48.2617 205.91 48.6133C206.707 48.9648 207.316 49.4492 207.738 50.0664C208.168 50.6758 208.383 51.3711 208.383 52.1523H205.008C205.008 51.8242 204.938 51.5312 204.797 51.2734C204.664 51.0078 204.453 50.8008 204.164 50.6523C203.883 50.4961 203.516 50.418 203.062 50.418C202.688 50.418 202.363 50.4844 202.09 50.6172C201.816 50.7422 201.605 50.9141 201.457 51.1328C201.316 51.3438 201.246 51.5781 201.246 51.8359C201.246 52.0312 201.285 52.207 201.363 52.3633C201.449 52.5117 201.586 52.6484 201.773 52.7734C201.961 52.8984 202.203 53.0156 202.5 53.125C202.805 53.2266 203.18 53.3203 203.625 53.4062C204.539 53.5938 205.355 53.8398 206.074 54.1445C206.793 54.4414 207.363 54.8477 207.785 55.3633C208.207 55.8711 208.418 56.5391 208.418 57.3672C208.418 57.9297 208.293 58.4453 208.043 58.9141C207.793 59.3828 207.434 59.793 206.965 60.1445C206.496 60.4883 205.934 60.7578 205.277 60.9531C204.629 61.1406 203.898 61.2344 203.086 61.2344C201.906 61.2344 200.906 61.0234 200.086 60.6016C199.273 60.1797 198.656 59.6445 198.234 58.9961C197.82 58.3398 197.613 57.668 197.613 56.9805H200.812C200.828 57.4414 200.945 57.8125 201.164 58.0938C201.391 58.375 201.676 58.5781 202.02 58.7031C202.371 58.8281 202.75 58.8906 203.156 58.8906C203.594 58.8906 203.957 58.832 204.246 58.7148C204.535 58.5898 204.754 58.4258 204.902 58.2227C205.059 58.0117 205.137 57.7695 205.137 57.4961ZM213.984 50.9453V61H210.598V48.3203H213.773L213.984 50.9453ZM213.516 54.2148H212.578C212.578 53.332 212.684 52.5195 212.895 51.7773C213.113 51.0273 213.43 50.3789 213.844 49.832C214.266 49.2773 214.785 48.8477 215.402 48.543C216.02 48.2383 216.734 48.0859 217.547 48.0859C218.109 48.0859 218.625 48.1719 219.094 48.3438C219.562 48.5078 219.965 48.7695 220.301 49.1289C220.645 49.4805 220.91 49.9414 221.098 50.5117C221.285 51.0742 221.379 51.75 221.379 52.5391V61H218.004V52.9141C218.004 52.3359 217.926 51.8906 217.77 51.5781C217.613 51.2656 217.391 51.0469 217.102 50.9219C216.82 50.7969 216.48 50.7344 216.082 50.7344C215.645 50.7344 215.262 50.8242 214.934 51.0039C214.613 51.1836 214.348 51.4336 214.137 51.7539C213.926 52.0664 213.77 52.4336 213.668 52.8555C213.566 53.2773 213.516 53.7305 213.516 54.2148ZM221.062 53.8281L219.855 53.9805C219.855 53.1523 219.957 52.3828 220.16 51.6719C220.371 50.9609 220.68 50.3359 221.086 49.7969C221.5 49.2578 222.012 48.8398 222.621 48.543C223.23 48.2383 223.934 48.0859 224.73 48.0859C225.34 48.0859 225.895 48.1758 226.395 48.3555C226.895 48.5273 227.32 48.8047 227.672 49.1875C228.031 49.5625 228.305 50.0547 228.492 50.6641C228.688 51.2734 228.785 52.0195 228.785 52.9023V61H225.398V52.9023C225.398 52.3164 225.32 51.8711 225.164 51.5664C225.016 51.2539 224.797 51.0391 224.508 50.9219C224.227 50.7969 223.891 50.7344 223.5 50.7344C223.094 50.7344 222.738 50.8164 222.434 50.9805C222.129 51.1367 221.875 51.3555 221.672 51.6367C221.469 51.918 221.316 52.2461 221.215 52.6211C221.113 52.9883 221.062 53.3906 221.062 53.8281ZM237.586 43.9375H243.949C245.254 43.9375 246.375 44.1328 247.312 44.5234C248.258 44.9141 248.984 45.4922 249.492 46.2578C250 47.0234 250.254 47.9648 250.254 49.082C250.254 49.9961 250.098 50.7812 249.785 51.4375C249.48 52.0859 249.047 52.6289 248.484 53.0664C247.93 53.4961 247.277 53.8398 246.527 54.0977L245.414 54.6836H239.883L239.859 51.9414H243.973C244.59 51.9414 245.102 51.832 245.508 51.6133C245.914 51.3945 246.219 51.0898 246.422 50.6992C246.633 50.3086 246.738 49.8555 246.738 49.3398C246.738 48.793 246.637 48.3203 246.434 47.9219C246.23 47.5234 245.922 47.2188 245.508 47.0078C245.094 46.7969 244.574 46.6914 243.949 46.6914H241.102V61H237.586V43.9375ZM247.125 61L243.234 53.3945L246.949 53.3711L250.887 60.8359V61H247.125ZM259.594 58.1406V52.4922C259.594 52.0859 259.527 51.7383 259.395 51.4492C259.262 51.1523 259.055 50.9219 258.773 50.7578C258.5 50.5938 258.145 50.5117 257.707 50.5117C257.332 50.5117 257.008 50.5781 256.734 50.7109C256.461 50.8359 256.25 51.0195 256.102 51.2617C255.953 51.4961 255.879 51.7734 255.879 52.0938H252.504C252.504 51.5547 252.629 51.043 252.879 50.5586C253.129 50.0742 253.492 49.6484 253.969 49.2812C254.445 48.9062 255.012 48.6133 255.668 48.4023C256.332 48.1914 257.074 48.0859 257.895 48.0859C258.879 48.0859 259.754 48.25 260.52 48.5781C261.285 48.9062 261.887 49.3984 262.324 50.0547C262.77 50.7109 262.992 51.5312 262.992 52.5156V57.9414C262.992 58.6367 263.035 59.207 263.121 59.6523C263.207 60.0898 263.332 60.4727 263.496 60.8008V61H260.086C259.922 60.6562 259.797 60.2266 259.711 59.7109C259.633 59.1875 259.594 58.6641 259.594 58.1406ZM260.039 53.2773L260.062 55.1875H258.176C257.73 55.1875 257.344 55.2383 257.016 55.3398C256.688 55.4414 256.418 55.5859 256.207 55.7734C255.996 55.9531 255.84 56.1641 255.738 56.4062C255.645 56.6484 255.598 56.9141 255.598 57.2031C255.598 57.4922 255.664 57.7539 255.797 57.9883C255.93 58.2148 256.121 58.3945 256.371 58.5273C256.621 58.6523 256.914 58.7148 257.25 58.7148C257.758 58.7148 258.199 58.6133 258.574 58.4102C258.949 58.207 259.238 57.957 259.441 57.6602C259.652 57.3633 259.762 57.082 259.77 56.8164L260.66 58.2461C260.535 58.5664 260.363 58.8984 260.145 59.2422C259.934 59.5859 259.664 59.9102 259.336 60.2148C259.008 60.5117 258.613 60.7578 258.152 60.9531C257.691 61.1406 257.145 61.2344 256.512 61.2344C255.707 61.2344 254.977 61.0742 254.32 60.7539C253.672 60.4258 253.156 59.9766 252.773 59.4062C252.398 58.8281 252.211 58.1719 252.211 57.4375C252.211 56.7734 252.336 56.1836 252.586 55.668C252.836 55.1523 253.203 54.7188 253.688 54.3672C254.18 54.0078 254.793 53.7383 255.527 53.5586C256.262 53.3711 257.113 53.2773 258.082 53.2773H260.039ZM273.082 58.2344V43H276.48V61H273.422L273.082 58.2344ZM265.066 54.8125V54.5664C265.066 53.5977 265.176 52.7188 265.395 51.9297C265.613 51.1328 265.934 50.4492 266.355 49.8789C266.777 49.3086 267.297 48.8672 267.914 48.5547C268.531 48.2422 269.234 48.0859 270.023 48.0859C270.766 48.0859 271.414 48.2422 271.969 48.5547C272.531 48.8672 273.008 49.3125 273.398 49.8906C273.797 50.4609 274.117 51.1367 274.359 51.918C274.602 52.6914 274.777 53.5391 274.887 54.4609V55C274.777 55.8828 274.602 56.7031 274.359 57.4609C274.117 58.2188 273.797 58.8828 273.398 59.4531C273.008 60.0156 272.531 60.4531 271.969 60.7656C271.406 61.0781 270.75 61.2344 270 61.2344C269.211 61.2344 268.508 61.0742 267.891 60.7539C267.281 60.4336 266.766 59.9844 266.344 59.4062C265.93 58.8281 265.613 58.1484 265.395 57.3672C265.176 56.5859 265.066 55.7344 265.066 54.8125ZM268.441 54.5664V54.8125C268.441 55.3359 268.48 55.8242 268.559 56.2773C268.645 56.7305 268.781 57.1328 268.969 57.4844C269.164 57.8281 269.414 58.0977 269.719 58.293C270.031 58.4805 270.41 58.5742 270.855 58.5742C271.434 58.5742 271.91 58.4453 272.285 58.1875C272.66 57.9219 272.945 57.5586 273.141 57.0977C273.344 56.6367 273.461 56.1055 273.492 55.5039V53.9688C273.469 53.4766 273.398 53.0352 273.281 52.6445C273.172 52.2461 273.008 51.9062 272.789 51.625C272.578 51.3438 272.312 51.125 271.992 50.9688C271.68 50.8125 271.309 50.7344 270.879 50.7344C270.441 50.7344 270.066 50.8359 269.754 51.0391C269.441 51.2344 269.188 51.5039 268.992 51.8477C268.805 52.1914 268.664 52.5977 268.57 53.0664C268.484 53.5273 268.441 54.0273 268.441 54.5664ZM285.961 58.1406V52.4922C285.961 52.0859 285.895 51.7383 285.762 51.4492C285.629 51.1523 285.422 50.9219 285.141 50.7578C284.867 50.5938 284.512 50.5117 284.074 50.5117C283.699 50.5117 283.375 50.5781 283.102 50.7109C282.828 50.8359 282.617 51.0195 282.469 51.2617C282.32 51.4961 282.246 51.7734 282.246 52.0938H278.871C278.871 51.5547 278.996 51.043 279.246 50.5586C279.496 50.0742 279.859 49.6484 280.336 49.2812C280.812 48.9062 281.379 48.6133 282.035 48.4023C282.699 48.1914 283.441 48.0859 284.262 48.0859C285.246 48.0859 286.121 48.25 286.887 48.5781C287.652 48.9062 288.254 49.3984 288.691 50.0547C289.137 50.7109 289.359 51.5312 289.359 52.5156V57.9414C289.359 58.6367 289.402 59.207 289.488 59.6523C289.574 60.0898 289.699 60.4727 289.863 60.8008V61H286.453C286.289 60.6562 286.164 60.2266 286.078 59.7109C286 59.1875 285.961 58.6641 285.961 58.1406ZM286.406 53.2773L286.43 55.1875H284.543C284.098 55.1875 283.711 55.2383 283.383 55.3398C283.055 55.4414 282.785 55.5859 282.574 55.7734C282.363 55.9531 282.207 56.1641 282.105 56.4062C282.012 56.6484 281.965 56.9141 281.965 57.2031C281.965 57.4922 282.031 57.7539 282.164 57.9883C282.297 58.2148 282.488 58.3945 282.738 58.5273C282.988 58.6523 283.281 58.7148 283.617 58.7148C284.125 58.7148 284.566 58.6133 284.941 58.4102C285.316 58.207 285.605 57.957 285.809 57.6602C286.02 57.3633 286.129 57.082 286.137 56.8164L287.027 58.2461C286.902 58.5664 286.73 58.8984 286.512 59.2422C286.301 59.5859 286.031 59.9102 285.703 60.2148C285.375 60.5117 284.98 60.7578 284.52 60.9531C284.059 61.1406 283.512 61.2344 282.879 61.2344C282.074 61.2344 281.344 61.0742 280.688 60.7539C280.039 60.4258 279.523 59.9766 279.141 59.4062C278.766 58.8281 278.578 58.1719 278.578 57.4375C278.578 56.7734 278.703 56.1836 278.953 55.668C279.203 55.1523 279.57 54.7188 280.055 54.3672C280.547 54.0078 281.16 53.7383 281.895 53.5586C282.629 53.3711 283.48 53.2773 284.449 53.2773H286.406ZM295.336 51.0859V61H291.961V48.3203H295.137L295.336 51.0859ZM299.156 48.2383L299.098 51.3672C298.934 51.3438 298.734 51.3242 298.5 51.3086C298.273 51.2852 298.066 51.2734 297.879 51.2734C297.402 51.2734 296.988 51.3359 296.637 51.4609C296.293 51.5781 296.004 51.7539 295.77 51.9883C295.543 52.2227 295.371 52.5078 295.254 52.8438C295.145 53.1797 295.082 53.5625 295.066 53.9922L294.387 53.7812C294.387 52.9609 294.469 52.207 294.633 51.5195C294.797 50.8242 295.035 50.2188 295.348 49.7031C295.668 49.1875 296.059 48.7891 296.52 48.5078C296.98 48.2266 297.508 48.0859 298.102 48.0859C298.289 48.0859 298.48 48.1016 298.676 48.1328C298.871 48.1562 299.031 48.1914 299.156 48.2383Z" fill="#888888"/>
<path d="M114.117 84.875H122.344V107.164C122.344 109.82 121.789 112.07 120.68 113.914C119.57 115.742 118.016 117.125 116.016 118.062C114.016 119 111.664 119.469 108.961 119.469C106.289 119.469 103.938 119 101.906 118.062C99.8906 117.125 98.3125 115.742 97.1719 113.914C96.0469 112.07 95.4844 109.82 95.4844 107.164V84.875H103.734V107.164C103.734 108.57 103.938 109.719 104.344 110.609C104.75 111.484 105.344 112.125 106.125 112.531C106.906 112.938 107.852 113.141 108.961 113.141C110.086 113.141 111.031 112.938 111.797 112.531C112.562 112.125 113.141 111.484 113.531 110.609C113.922 109.719 114.117 108.57 114.117 107.164V84.875ZM136.266 84.875V119H128.062V84.875H136.266ZM172.523 84.875H180.75V107.164C180.75 109.82 180.195 112.07 179.086 113.914C177.977 115.742 176.422 117.125 174.422 118.062C172.422 119 170.07 119.469 167.367 119.469C164.695 119.469 162.344 119 160.312 118.062C158.297 117.125 156.719 115.742 155.578 113.914C154.453 112.07 153.891 109.82 153.891 107.164V84.875H162.141V107.164C162.141 108.57 162.344 109.719 162.75 110.609C163.156 111.484 163.75 112.125 164.531 112.531C165.312 112.938 166.258 113.141 167.367 113.141C168.492 113.141 169.438 112.938 170.203 112.531C170.969 112.125 171.547 111.484 171.938 110.609C172.328 109.719 172.523 108.57 172.523 107.164V84.875ZM193.078 84.875L198.656 96.2188L204.234 84.875H213.609L204.094 101.797L213.867 119H204.398L198.656 107.445L192.914 119H183.422L193.219 101.797L183.68 84.875H193.078Z" fill="black"/>
<path d="M1134 0H1348C1356.28 0 1363 6.71573 1363 15V148C1363 156.284 1356.28 163 1348 163H1134V0Z" fill="#1682CF"/>
<path d="M1248.5 111.917C1244.51 111.917 1240.55 111.13 1236.86 109.601C1233.17 108.073 1229.82 105.832 1226.99 103.008C1221.29 97.3036 1218.08 89.567 1218.08 81.5C1218.08 73.433 1221.29 65.6964 1226.99 59.9922C1232.7 54.2879 1240.43 51.0833 1248.5 51.0833C1265.23 51.0833 1278.92 63.25 1278.92 78.4583C1278.92 83.2985 1276.99 87.9405 1273.57 91.363C1270.15 94.7856 1265.51 96.7083 1260.67 96.7083H1255.19C1254.28 96.7083 1253.67 97.3167 1253.67 98.2292C1253.67 98.5333 1253.97 98.8375 1253.97 99.1417C1255.19 100.662 1255.8 102.487 1255.8 104.312C1256.1 108.571 1252.76 111.917 1248.5 111.917ZM1248.5 57.1667C1242.05 57.1667 1235.86 59.7303 1231.29 64.2937C1226.73 68.8571 1224.17 75.0464 1224.17 81.5C1224.17 87.9536 1226.73 94.1429 1231.29 98.7063C1235.86 103.27 1242.05 105.833 1248.5 105.833C1249.41 105.833 1250.02 105.225 1250.02 104.312C1250.02 103.704 1249.72 103.4 1249.72 103.096C1248.5 101.575 1247.89 100.054 1247.89 98.2292C1247.89 93.9708 1251.24 90.625 1255.5 90.625H1260.67C1263.89 90.625 1266.99 89.3432 1269.27 87.0615C1271.55 84.7798 1272.83 81.6851 1272.83 78.4583C1272.83 66.5958 1261.88 57.1667 1248.5 57.1667ZM1231.77 75.4167C1234.2 75.4167 1236.33 77.5458 1236.33 79.9792C1236.33 82.4125 1234.2 84.5417 1231.77 84.5417C1229.34 84.5417 1227.21 82.4125 1227.21 79.9792C1227.21 77.5458 1229.34 75.4167 1231.77 75.4167ZM1240.9 63.25C1243.33 63.25 1245.46 65.3792 1245.46 67.8125C1245.46 70.2458 1243.33 72.375 1240.9 72.375C1238.46 72.375 1236.33 70.2458 1236.33 67.8125C1236.33 65.3792 1238.46 63.25 1240.9 63.25ZM1256.1 63.25C1258.54 63.25 1260.67 65.3792 1260.67 67.8125C1260.67 70.2458 1258.54 72.375 1256.1 72.375C1253.67 72.375 1251.54 70.2458 1251.54 67.8125C1251.54 65.3792 1253.67 63.25 1256.1 63.25ZM1265.23 75.4167C1267.66 75.4167 1269.79 77.5458 1269.79 79.9792C1269.79 82.4125 1267.66 84.5417 1265.23 84.5417C1262.8 84.5417 1260.67 82.4125 1260.67 79.9792C1260.67 77.5458 1262.8 75.4167 1265.23 75.4167Z" fill="white"/>
</svg>
