<svg width="1363" height="163" viewBox="0 0 1363 163" fill="none" xmlns="http://www.w3.org/2000/svg">
<path d="M0 15C0 6.71573 6.71573 0 15 0H37V163H15C6.71573 163 0 156.284 0 148V15Z" fill="#424242"/>
<rect width="1097" height="163" transform="translate(37)" fill="#F0F0F0"/>
<path d="M101.906 53.9219L94.3945 51.2383V48.0859L104.602 52.375V54.6367L101.906 53.9219ZM94.3945 56.1719L101.918 53.4297L104.602 52.7852V55.0352L94.3945 59.3242V56.1719ZM112.898 43.9375H119.262C120.566 43.9375 121.688 44.1328 122.625 44.5234C123.57 44.9141 124.297 45.4922 124.805 46.2578C125.312 47.0234 125.566 47.9648 125.566 49.082C125.566 49.9961 125.41 50.7812 125.098 51.4375C124.793 52.0859 124.359 52.6289 123.797 53.0664C123.242 53.4961 122.59 53.8398 121.84 54.0977L120.727 54.6836H115.195L115.172 51.9414H119.285C119.902 51.9414 120.414 51.832 120.82 51.6133C121.227 51.3945 121.531 51.0898 121.734 50.6992C121.945 50.3086 122.051 49.8555 122.051 49.3398C122.051 48.793 121.949 48.3203 121.746 47.9219C121.543 47.5234 121.234 47.2188 120.82 47.0078C120.406 46.7969 119.887 46.6914 119.262 46.6914H116.414V61H112.898V43.9375ZM122.438 61L118.547 53.3945L122.262 53.3711L126.199 60.8359V61H122.438ZM133.898 61.2344C132.914 61.2344 132.031 61.0781 131.25 60.7656C130.469 60.4453 129.805 60.0039 129.258 59.4414C128.719 58.8789 128.305 58.2266 128.016 57.4844C127.727 56.7344 127.582 55.9375 127.582 55.0938V54.625C127.582 53.6641 127.719 52.7852 127.992 51.9883C128.266 51.1914 128.656 50.5 129.164 49.9141C129.68 49.3281 130.305 48.8789 131.039 48.5664C131.773 48.2461 132.602 48.0859 133.523 48.0859C134.422 48.0859 135.219 48.2344 135.914 48.5312C136.609 48.8281 137.191 49.25 137.66 49.7969C138.137 50.3438 138.496 51 138.738 51.7656C138.98 52.5234 139.102 53.3672 139.102 54.2969V55.7031H129.023V53.4531H135.785V53.1953C135.785 52.7266 135.699 52.3086 135.527 51.9414C135.363 51.5664 135.113 51.2695 134.777 51.0508C134.441 50.832 134.012 50.7227 133.488 50.7227C133.043 50.7227 132.66 50.8203 132.34 51.0156C132.02 51.2109 131.758 51.4844 131.555 51.8359C131.359 52.1875 131.211 52.6016 131.109 53.0781C131.016 53.5469 130.969 54.0625 130.969 54.625V55.0938C130.969 55.6016 131.039 56.0703 131.18 56.5C131.328 56.9297 131.535 57.3008 131.801 57.6133C132.074 57.9258 132.402 58.168 132.785 58.3398C133.176 58.5117 133.617 58.5977 134.109 58.5977C134.719 58.5977 135.285 58.4805 135.809 58.2461C136.34 58.0039 136.797 57.6406 137.18 57.1562L138.82 58.9375C138.555 59.3203 138.191 59.6875 137.73 60.0391C137.277 60.3906 136.73 60.6797 136.09 60.9062C135.449 61.125 134.719 61.2344 133.898 61.2344ZM146.262 58.5977C146.676 58.5977 147.043 58.5195 147.363 58.3633C147.684 58.1992 147.934 57.9727 148.113 57.6836C148.301 57.3867 148.398 57.0391 148.406 56.6406H151.582C151.574 57.5312 151.336 58.3242 150.867 59.0195C150.398 59.707 149.77 60.25 148.98 60.6484C148.191 61.0391 147.309 61.2344 146.332 61.2344C145.348 61.2344 144.488 61.0703 143.754 60.7422C143.027 60.4141 142.422 59.9609 141.938 59.3828C141.453 58.7969 141.09 58.1172 140.848 57.3438C140.605 56.5625 140.484 55.7266 140.484 54.8359V54.4961C140.484 53.5977 140.605 52.7617 140.848 51.9883C141.09 51.207 141.453 50.5273 141.938 49.9492C142.422 49.3633 143.027 48.9062 143.754 48.5781C144.48 48.25 145.332 48.0859 146.309 48.0859C147.348 48.0859 148.258 48.2852 149.039 48.6836C149.828 49.082 150.445 49.6523 150.891 50.3945C151.344 51.1289 151.574 52 151.582 53.0078H148.406C148.398 52.5859 148.309 52.2031 148.137 51.8594C147.973 51.5156 147.73 51.2422 147.41 51.0391C147.098 50.8281 146.711 50.7227 146.25 50.7227C145.758 50.7227 145.355 50.8281 145.043 51.0391C144.73 51.2422 144.488 51.5234 144.316 51.8828C144.145 52.2344 144.023 52.6367 143.953 53.0898C143.891 53.5352 143.859 54.0039 143.859 54.4961V54.8359C143.859 55.3281 143.891 55.8008 143.953 56.2539C144.016 56.707 144.133 57.1094 144.305 57.4609C144.484 57.8125 144.73 58.0898 145.043 58.293C145.355 58.4961 145.762 58.5977 146.262 58.5977ZM157.102 48.3203V61H153.715V48.3203H157.102ZM153.504 45.0156C153.504 44.5234 153.676 44.1172 154.02 43.7969C154.363 43.4766 154.824 43.3164 155.402 43.3164C155.973 43.3164 156.43 43.4766 156.773 43.7969C157.125 44.1172 157.301 44.5234 157.301 45.0156C157.301 45.5078 157.125 45.9141 156.773 46.2344C156.43 46.5547 155.973 46.7148 155.402 46.7148C154.824 46.7148 154.363 46.5547 154.02 46.2344C153.676 45.9141 153.504 45.5078 153.504 45.0156ZM167.379 58.2344V43H170.777V61H167.719L167.379 58.2344ZM159.363 54.8125V54.5664C159.363 53.5977 159.473 52.7188 159.691 51.9297C159.91 51.1328 160.23 50.4492 160.652 49.8789C161.074 49.3086 161.594 48.8672 162.211 48.5547C162.828 48.2422 163.531 48.0859 164.32 48.0859C165.062 48.0859 165.711 48.2422 166.266 48.5547C166.828 48.8672 167.305 49.3125 167.695 49.8906C168.094 50.4609 168.414 51.1367 168.656 51.918C168.898 52.6914 169.074 53.5391 169.184 54.4609V55C169.074 55.8828 168.898 56.7031 168.656 57.4609C168.414 58.2188 168.094 58.8828 167.695 59.4531C167.305 60.0156 166.828 60.4531 166.266 60.7656C165.703 61.0781 165.047 61.2344 164.297 61.2344C163.508 61.2344 162.805 61.0742 162.188 60.7539C161.578 60.4336 161.062 59.9844 160.641 59.4062C160.227 58.8281 159.91 58.1484 159.691 57.3672C159.473 56.5859 159.363 55.7344 159.363 54.8125ZM162.738 54.5664V54.8125C162.738 55.3359 162.777 55.8242 162.855 56.2773C162.941 56.7305 163.078 57.1328 163.266 57.4844C163.461 57.8281 163.711 58.0977 164.016 58.293C164.328 58.4805 164.707 58.5742 165.152 58.5742C165.73 58.5742 166.207 58.4453 166.582 58.1875C166.957 57.9219 167.242 57.5586 167.438 57.0977C167.641 56.6367 167.758 56.1055 167.789 55.5039V53.9688C167.766 53.4766 167.695 53.0352 167.578 52.6445C167.469 52.2461 167.305 51.9062 167.086 51.625C166.875 51.3438 166.609 51.125 166.289 50.9688C165.977 50.8125 165.605 50.7344 165.176 50.7344C164.738 50.7344 164.363 50.8359 164.051 51.0391C163.738 51.2344 163.484 51.5039 163.289 51.8477C163.102 52.1914 162.961 52.5977 162.867 53.0664C162.781 53.5273 162.738 54.0273 162.738 54.5664ZM176.977 48.3203V61H173.59V48.3203H176.977ZM173.379 45.0156C173.379 44.5234 173.551 44.1172 173.895 43.7969C174.238 43.4766 174.699 43.3164 175.277 43.3164C175.848 43.3164 176.305 43.4766 176.648 43.7969C177 44.1172 177.176 44.5234 177.176 45.0156C177.176 45.5078 177 45.9141 176.648 46.2344C176.305 46.5547 175.848 46.7148 175.277 46.7148C174.699 46.7148 174.238 46.5547 173.895 46.2344C173.551 45.9141 173.379 45.5078 173.379 45.0156ZM184.078 58.5391L186.891 48.3203H190.418L186.141 61H184.008L184.078 58.5391ZM182.145 48.3203L184.969 58.5508L185.027 61H182.883L178.605 48.3203H182.145ZM195.492 48.3203V61H192.105V48.3203H195.492ZM191.895 45.0156C191.895 44.5234 192.066 44.1172 192.41 43.7969C192.754 43.4766 193.215 43.3164 193.793 43.3164C194.363 43.3164 194.82 43.4766 195.164 43.7969C195.516 44.1172 195.691 44.5234 195.691 45.0156C195.691 45.5078 195.516 45.9141 195.164 46.2344C194.82 46.5547 194.363 46.7148 193.793 46.7148C193.215 46.7148 192.754 46.5547 192.41 46.2344C192.066 45.9141 191.895 45.5078 191.895 45.0156ZM205.137 57.4961C205.137 57.2539 205.066 57.0352 204.926 56.8398C204.785 56.6445 204.523 56.4648 204.141 56.3008C203.766 56.1289 203.223 55.9727 202.512 55.832C201.871 55.6914 201.273 55.5156 200.719 55.3047C200.172 55.0859 199.695 54.8242 199.289 54.5195C198.891 54.2148 198.578 53.8555 198.352 53.4414C198.125 53.0195 198.012 52.5391 198.012 52C198.012 51.4688 198.125 50.9688 198.352 50.5C198.586 50.0312 198.918 49.6172 199.348 49.2578C199.785 48.8906 200.316 48.6055 200.941 48.4023C201.574 48.1914 202.285 48.0859 203.074 48.0859C204.176 48.0859 205.121 48.2617 205.91 48.6133C206.707 48.9648 207.316 49.4492 207.738 50.0664C208.168 50.6758 208.383 51.3711 208.383 52.1523H205.008C205.008 51.8242 204.938 51.5312 204.797 51.2734C204.664 51.0078 204.453 50.8008 204.164 50.6523C203.883 50.4961 203.516 50.418 203.062 50.418C202.688 50.418 202.363 50.4844 202.09 50.6172C201.816 50.7422 201.605 50.9141 201.457 51.1328C201.316 51.3438 201.246 51.5781 201.246 51.8359C201.246 52.0312 201.285 52.207 201.363 52.3633C201.449 52.5117 201.586 52.6484 201.773 52.7734C201.961 52.8984 202.203 53.0156 202.5 53.125C202.805 53.2266 203.18 53.3203 203.625 53.4062C204.539 53.5938 205.355 53.8398 206.074 54.1445C206.793 54.4414 207.363 54.8477 207.785 55.3633C208.207 55.8711 208.418 56.5391 208.418 57.3672C208.418 57.9297 208.293 58.4453 208.043 58.9141C207.793 59.3828 207.434 59.793 206.965 60.1445C206.496 60.4883 205.934 60.7578 205.277 60.9531C204.629 61.1406 203.898 61.2344 203.086 61.2344C201.906 61.2344 200.906 61.0234 200.086 60.6016C199.273 60.1797 198.656 59.6445 198.234 58.9961C197.82 58.3398 197.613 57.668 197.613 56.9805H200.812C200.828 57.4414 200.945 57.8125 201.164 58.0938C201.391 58.375 201.676 58.5781 202.02 58.7031C202.371 58.8281 202.75 58.8906 203.156 58.8906C203.594 58.8906 203.957 58.832 204.246 58.7148C204.535 58.5898 204.754 58.4258 204.902 58.2227C205.059 58.0117 205.137 57.7695 205.137 57.4961ZM213.984 50.9453V61H210.598V48.3203H213.773L213.984 50.9453ZM213.516 54.2148H212.578C212.578 53.332 212.684 52.5195 212.895 51.7773C213.113 51.0273 213.43 50.3789 213.844 49.832C214.266 49.2773 214.785 48.8477 215.402 48.543C216.02 48.2383 216.734 48.0859 217.547 48.0859C218.109 48.0859 218.625 48.1719 219.094 48.3438C219.562 48.5078 219.965 48.7695 220.301 49.1289C220.645 49.4805 220.91 49.9414 221.098 50.5117C221.285 51.0742 221.379 51.75 221.379 52.5391V61H218.004V52.9141C218.004 52.3359 217.926 51.8906 217.77 51.5781C217.613 51.2656 217.391 51.0469 217.102 50.9219C216.82 50.7969 216.48 50.7344 216.082 50.7344C215.645 50.7344 215.262 50.8242 214.934 51.0039C214.613 51.1836 214.348 51.4336 214.137 51.7539C213.926 52.0664 213.77 52.4336 213.668 52.8555C213.566 53.2773 213.516 53.7305 213.516 54.2148ZM221.062 53.8281L219.855 53.9805C219.855 53.1523 219.957 52.3828 220.16 51.6719C220.371 50.9609 220.68 50.3359 221.086 49.7969C221.5 49.2578 222.012 48.8398 222.621 48.543C223.23 48.2383 223.934 48.0859 224.73 48.0859C225.34 48.0859 225.895 48.1758 226.395 48.3555C226.895 48.5273 227.32 48.8047 227.672 49.1875C228.031 49.5625 228.305 50.0547 228.492 50.6641C228.688 51.2734 228.785 52.0195 228.785 52.9023V61H225.398V52.9023C225.398 52.3164 225.32 51.8711 225.164 51.5664C225.016 51.2539 224.797 51.0391 224.508 50.9219C224.227 50.7969 223.891 50.7344 223.5 50.7344C223.094 50.7344 222.738 50.8164 222.434 50.9805C222.129 51.1367 221.875 51.3555 221.672 51.6367C221.469 51.918 221.316 52.2461 221.215 52.6211C221.113 52.9883 221.062 53.3906 221.062 53.8281ZM237.586 43.9375H243.949C245.254 43.9375 246.375 44.1328 247.312 44.5234C248.258 44.9141 248.984 45.4922 249.492 46.2578C250 47.0234 250.254 47.9648 250.254 49.082C250.254 49.9961 250.098 50.7812 249.785 51.4375C249.48 52.0859 249.047 52.6289 248.484 53.0664C247.93 53.4961 247.277 53.8398 246.527 54.0977L245.414 54.6836H239.883L239.859 51.9414H243.973C244.59 51.9414 245.102 51.832 245.508 51.6133C245.914 51.3945 246.219 51.0898 246.422 50.6992C246.633 50.3086 246.738 49.8555 246.738 49.3398C246.738 48.793 246.637 48.3203 246.434 47.9219C246.23 47.5234 245.922 47.2188 245.508 47.0078C245.094 46.7969 244.574 46.6914 243.949 46.6914H241.102V61H237.586V43.9375ZM247.125 61L243.234 53.3945L246.949 53.3711L250.887 60.8359V61H247.125ZM259.594 58.1406V52.4922C259.594 52.0859 259.527 51.7383 259.395 51.4492C259.262 51.1523 259.055 50.9219 258.773 50.7578C258.5 50.5938 258.145 50.5117 257.707 50.5117C257.332 50.5117 257.008 50.5781 256.734 50.7109C256.461 50.8359 256.25 51.0195 256.102 51.2617C255.953 51.4961 255.879 51.7734 255.879 52.0938H252.504C252.504 51.5547 252.629 51.043 252.879 50.5586C253.129 50.0742 253.492 49.6484 253.969 49.2812C254.445 48.9062 255.012 48.6133 255.668 48.4023C256.332 48.1914 257.074 48.0859 257.895 48.0859C258.879 48.0859 259.754 48.25 260.52 48.5781C261.285 48.9062 261.887 49.3984 262.324 50.0547C262.77 50.7109 262.992 51.5312 262.992 52.5156V57.9414C262.992 58.6367 263.035 59.207 263.121 59.6523C263.207 60.0898 263.332 60.4727 263.496 60.8008V61H260.086C259.922 60.6562 259.797 60.2266 259.711 59.7109C259.633 59.1875 259.594 58.6641 259.594 58.1406ZM260.039 53.2773L260.062 55.1875H258.176C257.73 55.1875 257.344 55.2383 257.016 55.3398C256.688 55.4414 256.418 55.5859 256.207 55.7734C255.996 55.9531 255.84 56.1641 255.738 56.4062C255.645 56.6484 255.598 56.9141 255.598 57.2031C255.598 57.4922 255.664 57.7539 255.797 57.9883C255.93 58.2148 256.121 58.3945 256.371 58.5273C256.621 58.6523 256.914 58.7148 257.25 58.7148C257.758 58.7148 258.199 58.6133 258.574 58.4102C258.949 58.207 259.238 57.957 259.441 57.6602C259.652 57.3633 259.762 57.082 259.77 56.8164L260.66 58.2461C260.535 58.5664 260.363 58.8984 260.145 59.2422C259.934 59.5859 259.664 59.9102 259.336 60.2148C259.008 60.5117 258.613 60.7578 258.152 60.9531C257.691 61.1406 257.145 61.2344 256.512 61.2344C255.707 61.2344 254.977 61.0742 254.32 60.7539C253.672 60.4258 253.156 59.9766 252.773 59.4062C252.398 58.8281 252.211 58.1719 252.211 57.4375C252.211 56.7734 252.336 56.1836 252.586 55.668C252.836 55.1523 253.203 54.7188 253.688 54.3672C254.18 54.0078 254.793 53.7383 255.527 53.5586C256.262 53.3711 257.113 53.2773 258.082 53.2773H260.039ZM273.082 58.2344V43H276.48V61H273.422L273.082 58.2344ZM265.066 54.8125V54.5664C265.066 53.5977 265.176 52.7188 265.395 51.9297C265.613 51.1328 265.934 50.4492 266.355 49.8789C266.777 49.3086 267.297 48.8672 267.914 48.5547C268.531 48.2422 269.234 48.0859 270.023 48.0859C270.766 48.0859 271.414 48.2422 271.969 48.5547C272.531 48.8672 273.008 49.3125 273.398 49.8906C273.797 50.4609 274.117 51.1367 274.359 51.918C274.602 52.6914 274.777 53.5391 274.887 54.4609V55C274.777 55.8828 274.602 56.7031 274.359 57.4609C274.117 58.2188 273.797 58.8828 273.398 59.4531C273.008 60.0156 272.531 60.4531 271.969 60.7656C271.406 61.0781 270.75 61.2344 270 61.2344C269.211 61.2344 268.508 61.0742 267.891 60.7539C267.281 60.4336 266.766 59.9844 266.344 59.4062C265.93 58.8281 265.613 58.1484 265.395 57.3672C265.176 56.5859 265.066 55.7344 265.066 54.8125ZM268.441 54.5664V54.8125C268.441 55.3359 268.48 55.8242 268.559 56.2773C268.645 56.7305 268.781 57.1328 268.969 57.4844C269.164 57.8281 269.414 58.0977 269.719 58.293C270.031 58.4805 270.41 58.5742 270.855 58.5742C271.434 58.5742 271.91 58.4453 272.285 58.1875C272.66 57.9219 272.945 57.5586 273.141 57.0977C273.344 56.6367 273.461 56.1055 273.492 55.5039V53.9688C273.469 53.4766 273.398 53.0352 273.281 52.6445C273.172 52.2461 273.008 51.9062 272.789 51.625C272.578 51.3438 272.312 51.125 271.992 50.9688C271.68 50.8125 271.309 50.7344 270.879 50.7344C270.441 50.7344 270.066 50.8359 269.754 51.0391C269.441 51.2344 269.188 51.5039 268.992 51.8477C268.805 52.1914 268.664 52.5977 268.57 53.0664C268.484 53.5273 268.441 54.0273 268.441 54.5664ZM285.961 58.1406V52.4922C285.961 52.0859 285.895 51.7383 285.762 51.4492C285.629 51.1523 285.422 50.9219 285.141 50.7578C284.867 50.5938 284.512 50.5117 284.074 50.5117C283.699 50.5117 283.375 50.5781 283.102 50.7109C282.828 50.8359 282.617 51.0195 282.469 51.2617C282.32 51.4961 282.246 51.7734 282.246 52.0938H278.871C278.871 51.5547 278.996 51.043 279.246 50.5586C279.496 50.0742 279.859 49.6484 280.336 49.2812C280.812 48.9062 281.379 48.6133 282.035 48.4023C282.699 48.1914 283.441 48.0859 284.262 48.0859C285.246 48.0859 286.121 48.25 286.887 48.5781C287.652 48.9062 288.254 49.3984 288.691 50.0547C289.137 50.7109 289.359 51.5312 289.359 52.5156V57.9414C289.359 58.6367 289.402 59.207 289.488 59.6523C289.574 60.0898 289.699 60.4727 289.863 60.8008V61H286.453C286.289 60.6562 286.164 60.2266 286.078 59.7109C286 59.1875 285.961 58.6641 285.961 58.1406ZM286.406 53.2773L286.43 55.1875H284.543C284.098 55.1875 283.711 55.2383 283.383 55.3398C283.055 55.4414 282.785 55.5859 282.574 55.7734C282.363 55.9531 282.207 56.1641 282.105 56.4062C282.012 56.6484 281.965 56.9141 281.965 57.2031C281.965 57.4922 282.031 57.7539 282.164 57.9883C282.297 58.2148 282.488 58.3945 282.738 58.5273C282.988 58.6523 283.281 58.7148 283.617 58.7148C284.125 58.7148 284.566 58.6133 284.941 58.4102C285.316 58.207 285.605 57.957 285.809 57.6602C286.02 57.3633 286.129 57.082 286.137 56.8164L287.027 58.2461C286.902 58.5664 286.73 58.8984 286.512 59.2422C286.301 59.5859 286.031 59.9102 285.703 60.2148C285.375 60.5117 284.98 60.7578 284.52 60.9531C284.059 61.1406 283.512 61.2344 282.879 61.2344C282.074 61.2344 281.344 61.0742 280.688 60.7539C280.039 60.4258 279.523 59.9766 279.141 59.4062C278.766 58.8281 278.578 58.1719 278.578 57.4375C278.578 56.7734 278.703 56.1836 278.953 55.668C279.203 55.1523 279.57 54.7188 280.055 54.3672C280.547 54.0078 281.16 53.7383 281.895 53.5586C282.629 53.3711 283.48 53.2773 284.449 53.2773H286.406ZM295.336 51.0859V61H291.961V48.3203H295.137L295.336 51.0859ZM299.156 48.2383L299.098 51.3672C298.934 51.3438 298.734 51.3242 298.5 51.3086C298.273 51.2852 298.066 51.2734 297.879 51.2734C297.402 51.2734 296.988 51.3359 296.637 51.4609C296.293 51.5781 296.004 51.7539 295.77 51.9883C295.543 52.2227 295.371 52.5078 295.254 52.8438C295.145 53.1797 295.082 53.5625 295.066 53.9922L294.387 53.7812C294.387 52.9609 294.469 52.207 294.633 51.5195C294.797 50.8242 295.035 50.2188 295.348 49.7031C295.668 49.1875 296.059 48.7891 296.52 48.5078C296.98 48.2266 297.508 48.0859 298.102 48.0859C298.289 48.0859 298.48 48.1016 298.676 48.1328C298.871 48.1562 299.031 48.1914 299.156 48.2383Z" fill="#888888"/>
<path d="M106.688 119H99.1172L99.1641 112.672H106.688C108.25 112.672 109.57 112.297 110.648 111.547C111.742 110.797 112.57 109.68 113.133 108.195C113.711 106.695 114 104.852 114 102.664V101.188C114 99.5469 113.836 98.1094 113.508 96.875C113.195 95.625 112.727 94.5859 112.102 93.7578C111.477 92.9141 110.695 92.2812 109.758 91.8594C108.836 91.4375 107.773 91.2266 106.57 91.2266H98.9766V84.875H106.57C108.883 84.875 111 85.2734 112.922 86.0703C114.859 86.8516 116.531 87.9766 117.938 89.4453C119.359 90.8984 120.453 92.625 121.219 94.625C122 96.6094 122.391 98.8125 122.391 101.234V102.664C122.391 105.07 122 107.273 121.219 109.273C120.453 111.273 119.367 113 117.961 114.453C116.555 115.906 114.891 117.031 112.969 117.828C111.062 118.609 108.969 119 106.688 119ZM103.828 84.875V119H95.6016V84.875H103.828ZM139.477 112.625V102.172C139.477 101.453 139.375 100.836 139.172 100.32C138.969 99.8047 138.648 99.4062 138.211 99.125C137.773 98.8281 137.188 98.6797 136.453 98.6797C135.859 98.6797 135.352 98.7812 134.93 98.9844C134.508 99.1875 134.188 99.4922 133.969 99.8984C133.75 100.305 133.641 100.82 133.641 101.445H125.742C125.742 100.273 126 99.1875 126.516 98.1875C127.047 97.1719 127.797 96.2891 128.766 95.5391C129.75 94.7891 130.922 94.2109 132.281 93.8047C133.656 93.3828 135.188 93.1719 136.875 93.1719C138.891 93.1719 140.688 93.5078 142.266 94.1797C143.859 94.8516 145.117 95.8594 146.039 97.2031C146.961 98.5312 147.422 100.203 147.422 102.219V112.602C147.422 114.258 147.516 115.516 147.703 116.375C147.891 117.219 148.156 117.961 148.5 118.602V119H140.578C140.203 118.219 139.922 117.266 139.734 116.141C139.562 115 139.477 113.828 139.477 112.625ZM140.438 103.508L140.484 107.727H136.992C136.258 107.727 135.633 107.828 135.117 108.031C134.617 108.234 134.211 108.516 133.898 108.875C133.602 109.219 133.383 109.609 133.242 110.047C133.117 110.484 133.055 110.945 133.055 111.43C133.055 111.898 133.164 112.32 133.383 112.695C133.617 113.055 133.93 113.336 134.32 113.539C134.711 113.742 135.148 113.844 135.633 113.844C136.508 113.844 137.25 113.68 137.859 113.352C138.484 113.008 138.961 112.594 139.289 112.109C139.617 111.625 139.781 111.172 139.781 110.75L141.516 113.984C141.203 114.609 140.844 115.242 140.438 115.883C140.047 116.523 139.555 117.117 138.961 117.664C138.383 118.195 137.672 118.633 136.828 118.977C135.984 119.305 134.961 119.469 133.758 119.469C132.195 119.469 130.758 119.148 129.445 118.508C128.148 117.867 127.109 116.977 126.328 115.836C125.547 114.68 125.156 113.352 125.156 111.852C125.156 110.539 125.391 109.367 125.859 108.336C126.344 107.305 127.07 106.43 128.039 105.711C129.008 104.992 130.242 104.445 131.742 104.07C133.242 103.695 135.008 103.508 137.039 103.508H140.438ZM165.164 93.6406V99.125H149.883V93.6406H165.164ZM153.094 87.3359H160.992V110.727C160.992 111.398 161.07 111.922 161.227 112.297C161.383 112.656 161.648 112.914 162.023 113.07C162.414 113.211 162.93 113.281 163.57 113.281C164.023 113.281 164.398 113.273 164.695 113.258C164.992 113.227 165.273 113.188 165.539 113.141V118.789C164.867 119.008 164.164 119.172 163.43 119.281C162.695 119.406 161.914 119.469 161.086 119.469C159.398 119.469 157.953 119.203 156.75 118.672C155.562 118.141 154.656 117.305 154.031 116.164C153.406 115.023 153.094 113.539 153.094 111.711V87.3359ZM181.477 112.625V102.172C181.477 101.453 181.375 100.836 181.172 100.32C180.969 99.8047 180.648 99.4062 180.211 99.125C179.773 98.8281 179.188 98.6797 178.453 98.6797C177.859 98.6797 177.352 98.7812 176.93 98.9844C176.508 99.1875 176.188 99.4922 175.969 99.8984C175.75 100.305 175.641 100.82 175.641 101.445H167.742C167.742 100.273 168 99.1875 168.516 98.1875C169.047 97.1719 169.797 96.2891 170.766 95.5391C171.75 94.7891 172.922 94.2109 174.281 93.8047C175.656 93.3828 177.188 93.1719 178.875 93.1719C180.891 93.1719 182.688 93.5078 184.266 94.1797C185.859 94.8516 187.117 95.8594 188.039 97.2031C188.961 98.5312 189.422 100.203 189.422 102.219V112.602C189.422 114.258 189.516 115.516 189.703 116.375C189.891 117.219 190.156 117.961 190.5 118.602V119H182.578C182.203 118.219 181.922 117.266 181.734 116.141C181.562 115 181.477 113.828 181.477 112.625ZM182.438 103.508L182.484 107.727H178.992C178.258 107.727 177.633 107.828 177.117 108.031C176.617 108.234 176.211 108.516 175.898 108.875C175.602 109.219 175.383 109.609 175.242 110.047C175.117 110.484 175.055 110.945 175.055 111.43C175.055 111.898 175.164 112.32 175.383 112.695C175.617 113.055 175.93 113.336 176.32 113.539C176.711 113.742 177.148 113.844 177.633 113.844C178.508 113.844 179.25 113.68 179.859 113.352C180.484 113.008 180.961 112.594 181.289 112.109C181.617 111.625 181.781 111.172 181.781 110.75L183.516 113.984C183.203 114.609 182.844 115.242 182.438 115.883C182.047 116.523 181.555 117.117 180.961 117.664C180.383 118.195 179.672 118.633 178.828 118.977C177.984 119.305 176.961 119.469 175.758 119.469C174.195 119.469 172.758 119.148 171.445 118.508C170.148 117.867 169.109 116.977 168.328 115.836C167.547 114.68 167.156 113.352 167.156 111.852C167.156 110.539 167.391 109.367 167.859 108.336C168.344 107.305 169.07 106.43 170.039 105.711C171.008 104.992 172.242 104.445 173.742 104.07C175.242 103.695 177.008 103.508 179.039 103.508H182.438ZM214.008 115.906L220.805 84.875H224.859L227.062 87.5234L219.82 119H215.344L214.008 115.906ZM212.203 84.875L217.945 116.141L216.469 119H211.289L204.047 84.875H212.203ZM230.789 115.977L236.484 84.875H244.617L237.375 119H232.219L230.789 115.977ZM227.789 84.875L234.75 116.094L233.344 119H228.867L221.461 87.4766L223.758 84.875H227.789ZM259.852 112.625V102.172C259.852 101.453 259.75 100.836 259.547 100.32C259.344 99.8047 259.023 99.4062 258.586 99.125C258.148 98.8281 257.562 98.6797 256.828 98.6797C256.234 98.6797 255.727 98.7812 255.305 98.9844C254.883 99.1875 254.562 99.4922 254.344 99.8984C254.125 100.305 254.016 100.82 254.016 101.445H246.117C246.117 100.273 246.375 99.1875 246.891 98.1875C247.422 97.1719 248.172 96.2891 249.141 95.5391C250.125 94.7891 251.297 94.2109 252.656 93.8047C254.031 93.3828 255.562 93.1719 257.25 93.1719C259.266 93.1719 261.062 93.5078 262.641 94.1797C264.234 94.8516 265.492 95.8594 266.414 97.2031C267.336 98.5312 267.797 100.203 267.797 102.219V112.602C267.797 114.258 267.891 115.516 268.078 116.375C268.266 117.219 268.531 117.961 268.875 118.602V119H260.953C260.578 118.219 260.297 117.266 260.109 116.141C259.938 115 259.852 113.828 259.852 112.625ZM260.812 103.508L260.859 107.727H257.367C256.633 107.727 256.008 107.828 255.492 108.031C254.992 108.234 254.586 108.516 254.273 108.875C253.977 109.219 253.758 109.609 253.617 110.047C253.492 110.484 253.43 110.945 253.43 111.43C253.43 111.898 253.539 112.32 253.758 112.695C253.992 113.055 254.305 113.336 254.695 113.539C255.086 113.742 255.523 113.844 256.008 113.844C256.883 113.844 257.625 113.68 258.234 113.352C258.859 113.008 259.336 112.594 259.664 112.109C259.992 111.625 260.156 111.172 260.156 110.75L261.891 113.984C261.578 114.609 261.219 115.242 260.812 115.883C260.422 116.523 259.93 117.117 259.336 117.664C258.758 118.195 258.047 118.633 257.203 118.977C256.359 119.305 255.336 119.469 254.133 119.469C252.57 119.469 251.133 119.148 249.82 118.508C248.523 117.867 247.484 116.977 246.703 115.836C245.922 114.68 245.531 113.352 245.531 111.852C245.531 110.539 245.766 109.367 246.234 108.336C246.719 107.305 247.445 106.43 248.414 105.711C249.383 104.992 250.617 104.445 252.117 104.07C253.617 103.695 255.383 103.508 257.414 103.508H260.812ZM280.148 99.9219V119H272.25V93.6406H279.633L280.148 99.9219ZM287.648 93.4531L287.508 100.789C287.195 100.758 286.773 100.719 286.242 100.672C285.711 100.625 285.266 100.602 284.906 100.602C283.984 100.602 283.188 100.711 282.516 100.93C281.859 101.133 281.312 101.445 280.875 101.867C280.453 102.273 280.141 102.789 279.938 103.414C279.75 104.039 279.664 104.766 279.68 105.594L278.25 104.656C278.25 102.953 278.414 101.406 278.742 100.016C279.086 98.6094 279.57 97.3984 280.195 96.3828C280.82 95.3516 281.578 94.5625 282.469 94.0156C283.359 93.4531 284.359 93.1719 285.469 93.1719C285.859 93.1719 286.242 93.1953 286.617 93.2422C287.008 93.2891 287.352 93.3594 287.648 93.4531ZM302.18 119.469C300.117 119.469 298.273 119.148 296.648 118.508C295.023 117.852 293.648 116.953 292.523 115.812C291.414 114.672 290.562 113.359 289.969 111.875C289.391 110.391 289.102 108.82 289.102 107.164V106.273C289.102 104.414 289.359 102.695 289.875 101.117C290.391 99.5234 291.156 98.1328 292.172 96.9453C293.188 95.7578 294.461 94.8359 295.992 94.1797C297.523 93.5078 299.305 93.1719 301.336 93.1719C303.133 93.1719 304.742 93.4609 306.164 94.0391C307.586 94.6172 308.789 95.4453 309.773 96.5234C310.773 97.6016 311.531 98.9062 312.047 100.438C312.578 101.969 312.844 103.688 312.844 105.594V108.805H292.125V103.859H305.133V103.25C305.148 102.406 305 101.688 304.688 101.094C304.391 100.5 303.953 100.047 303.375 99.7344C302.797 99.4219 302.094 99.2656 301.266 99.2656C300.406 99.2656 299.695 99.4531 299.133 99.8281C298.586 100.203 298.156 100.719 297.844 101.375C297.547 102.016 297.336 102.758 297.211 103.602C297.086 104.445 297.023 105.336 297.023 106.273V107.164C297.023 108.102 297.148 108.953 297.398 109.719C297.664 110.484 298.039 111.141 298.523 111.688C299.023 112.219 299.617 112.633 300.305 112.93C301.008 113.227 301.805 113.375 302.695 113.375C303.773 113.375 304.836 113.172 305.883 112.766C306.93 112.359 307.828 111.688 308.578 110.75L312.164 115.016C311.648 115.75 310.914 116.461 309.961 117.148C309.023 117.836 307.898 118.398 306.586 118.836C305.273 119.258 303.805 119.469 302.18 119.469ZM323.789 83V119H315.891V83H323.789ZM322.852 105.453L321 105.5C321 103.719 321.219 102.078 321.656 100.578C322.094 99.0781 322.719 97.7734 323.531 96.6641C324.344 95.5547 325.32 94.6953 326.461 94.0859C327.602 93.4766 328.867 93.1719 330.258 93.1719C331.508 93.1719 332.648 93.3516 333.68 93.7109C334.727 94.0703 335.625 94.6484 336.375 95.4453C337.141 96.2422 337.727 97.2812 338.133 98.5625C338.555 99.8438 338.766 101.406 338.766 103.25V119H330.82V103.203C330.82 102.172 330.672 101.375 330.375 100.812C330.094 100.234 329.688 99.8359 329.156 99.6172C328.625 99.3828 327.977 99.2656 327.211 99.2656C326.289 99.2656 325.539 99.4219 324.961 99.7344C324.383 100.047 323.938 100.484 323.625 101.047C323.328 101.594 323.125 102.242 323.016 102.992C322.906 103.742 322.852 104.562 322.852 105.453ZM342.164 106.578V106.086C342.164 104.227 342.43 102.516 342.961 100.953C343.492 99.375 344.273 98.0078 345.305 96.8516C346.336 95.6953 347.609 94.7969 349.125 94.1562C350.641 93.5 352.391 93.1719 354.375 93.1719C356.375 93.1719 358.133 93.5 359.648 94.1562C361.18 94.7969 362.461 95.6953 363.492 96.8516C364.523 98.0078 365.305 99.375 365.836 100.953C366.367 102.516 366.633 104.227 366.633 106.086V106.578C366.633 108.422 366.367 110.133 365.836 111.711C365.305 113.273 364.523 114.641 363.492 115.812C362.461 116.969 361.188 117.867 359.672 118.508C358.156 119.148 356.406 119.469 354.422 119.469C352.438 119.469 350.68 119.148 349.148 118.508C347.617 117.867 346.336 116.969 345.305 115.812C344.273 114.641 343.492 113.273 342.961 111.711C342.43 110.133 342.164 108.422 342.164 106.578ZM350.062 106.086V106.578C350.062 107.531 350.133 108.422 350.273 109.25C350.414 110.078 350.648 110.805 350.977 111.43C351.305 112.039 351.75 112.516 352.312 112.859C352.875 113.203 353.578 113.375 354.422 113.375C355.25 113.375 355.938 113.203 356.484 112.859C357.047 112.516 357.492 112.039 357.82 111.43C358.148 110.805 358.383 110.078 358.523 109.25C358.664 108.422 358.734 107.531 358.734 106.578V106.086C358.734 105.164 358.664 104.297 358.523 103.484C358.383 102.656 358.148 101.93 357.82 101.305C357.492 100.664 357.047 100.164 356.484 99.8047C355.922 99.4453 355.219 99.2656 354.375 99.2656C353.547 99.2656 352.852 99.4453 352.289 99.8047C351.742 100.164 351.305 100.664 350.977 101.305C350.648 101.93 350.414 102.656 350.273 103.484C350.133 104.297 350.062 105.164 350.062 106.086ZM384.961 112.836V93.6406H392.883V119H385.477L384.961 112.836ZM385.711 107.68L387.773 107.633C387.773 109.336 387.57 110.914 387.164 112.367C386.758 113.805 386.156 115.055 385.359 116.117C384.578 117.18 383.609 118.008 382.453 118.602C381.312 119.18 379.992 119.469 378.492 119.469C377.242 119.469 376.094 119.297 375.047 118.953C374.016 118.594 373.125 118.039 372.375 117.289C371.625 116.523 371.039 115.547 370.617 114.359C370.211 113.156 370.008 111.719 370.008 110.047V93.6406H377.906V110.094C377.906 110.656 377.977 111.141 378.117 111.547C378.258 111.953 378.461 112.297 378.727 112.578C378.992 112.844 379.32 113.047 379.711 113.188C380.117 113.312 380.578 113.375 381.094 113.375C382.281 113.375 383.211 113.125 383.883 112.625C384.555 112.125 385.023 111.445 385.289 110.586C385.57 109.727 385.711 108.758 385.711 107.68ZM410.531 111.875C410.531 111.438 410.383 111.062 410.086 110.75C409.805 110.422 409.305 110.125 408.586 109.859C407.867 109.578 406.859 109.297 405.562 109.016C404.328 108.75 403.164 108.398 402.07 107.961C400.992 107.523 400.047 106.992 399.234 106.367C398.422 105.742 397.781 105 397.312 104.141C396.859 103.281 396.633 102.297 396.633 101.188C396.633 100.109 396.859 99.0938 397.312 98.1406C397.781 97.1719 398.461 96.3203 399.352 95.5859C400.258 94.8359 401.359 94.25 402.656 93.8281C403.953 93.3906 405.43 93.1719 407.086 93.1719C409.367 93.1719 411.336 93.5234 412.992 94.2266C414.648 94.9141 415.922 95.8828 416.812 97.1328C417.719 98.3672 418.172 99.7969 418.172 101.422H410.273C410.273 100.781 410.164 100.234 409.945 99.7812C409.742 99.3281 409.406 98.9844 408.938 98.75C408.469 98.5 407.844 98.375 407.062 98.375C406.516 98.375 406.016 98.4766 405.562 98.6797C405.125 98.8828 404.773 99.1641 404.508 99.5234C404.242 99.8828 404.109 100.305 404.109 100.789C404.109 101.133 404.188 101.445 404.344 101.727C404.516 101.992 404.773 102.242 405.117 102.477C405.461 102.695 405.898 102.898 406.43 103.086C406.961 103.258 407.602 103.414 408.352 103.555C410.055 103.867 411.648 104.312 413.133 104.891C414.617 105.469 415.82 106.289 416.742 107.352C417.68 108.414 418.148 109.844 418.148 111.641C418.148 112.766 417.891 113.805 417.375 114.758C416.859 115.695 416.117 116.523 415.148 117.242C414.18 117.945 413.016 118.492 411.656 118.883C410.297 119.273 408.766 119.469 407.062 119.469C404.641 119.469 402.594 119.039 400.922 118.18C399.25 117.305 397.984 116.211 397.125 114.898C396.281 113.57 395.859 112.227 395.859 110.867H403.219C403.25 111.648 403.438 112.289 403.781 112.789C404.141 113.289 404.617 113.656 405.211 113.891C405.805 114.125 406.492 114.242 407.273 114.242C407.992 114.242 408.586 114.141 409.055 113.938C409.539 113.734 409.906 113.461 410.156 113.117C410.406 112.758 410.531 112.344 410.531 111.875ZM434.133 119.469C432.07 119.469 430.227 119.148 428.602 118.508C426.977 117.852 425.602 116.953 424.477 115.812C423.367 114.672 422.516 113.359 421.922 111.875C421.344 110.391 421.055 108.82 421.055 107.164V106.273C421.055 104.414 421.312 102.695 421.828 101.117C422.344 99.5234 423.109 98.1328 424.125 96.9453C425.141 95.7578 426.414 94.8359 427.945 94.1797C429.477 93.5078 431.258 93.1719 433.289 93.1719C435.086 93.1719 436.695 93.4609 438.117 94.0391C439.539 94.6172 440.742 95.4453 441.727 96.5234C442.727 97.6016 443.484 98.9062 444 100.438C444.531 101.969 444.797 103.688 444.797 105.594V108.805H424.078V103.859H437.086V103.25C437.102 102.406 436.953 101.688 436.641 101.094C436.344 100.5 435.906 100.047 435.328 99.7344C434.75 99.4219 434.047 99.2656 433.219 99.2656C432.359 99.2656 431.648 99.4531 431.086 99.8281C430.539 100.203 430.109 100.719 429.797 101.375C429.5 102.016 429.289 102.758 429.164 103.602C429.039 104.445 428.977 105.336 428.977 106.273V107.164C428.977 108.102 429.102 108.953 429.352 109.719C429.617 110.484 429.992 111.141 430.477 111.688C430.977 112.219 431.57 112.633 432.258 112.93C432.961 113.227 433.758 113.375 434.648 113.375C435.727 113.375 436.789 113.172 437.836 112.766C438.883 112.359 439.781 111.688 440.531 110.75L444.117 115.016C443.602 115.75 442.867 116.461 441.914 117.148C440.977 117.836 439.852 118.398 438.539 118.836C437.227 119.258 435.758 119.469 434.133 119.469ZM471.422 119H463.852L463.898 112.672H471.422C472.984 112.672 474.305 112.297 475.383 111.547C476.477 110.797 477.305 109.68 477.867 108.195C478.445 106.695 478.734 104.852 478.734 102.664V101.188C478.734 99.5469 478.57 98.1094 478.242 96.875C477.93 95.625 477.461 94.5859 476.836 93.7578C476.211 92.9141 475.43 92.2812 474.492 91.8594C473.57 91.4375 472.508 91.2266 471.305 91.2266H463.711V84.875H471.305C473.617 84.875 475.734 85.2734 477.656 86.0703C479.594 86.8516 481.266 87.9766 482.672 89.4453C484.094 90.8984 485.188 92.625 485.953 94.625C486.734 96.6094 487.125 98.8125 487.125 101.234V102.664C487.125 105.07 486.734 107.273 485.953 109.273C485.188 111.273 484.102 113 482.695 114.453C481.289 115.906 479.625 117.031 477.703 117.828C475.797 118.609 473.703 119 471.422 119ZM468.562 84.875V119H460.336V84.875H468.562ZM503.32 119.469C501.258 119.469 499.414 119.148 497.789 118.508C496.164 117.852 494.789 116.953 493.664 115.812C492.555 114.672 491.703 113.359 491.109 111.875C490.531 110.391 490.242 108.82 490.242 107.164V106.273C490.242 104.414 490.5 102.695 491.016 101.117C491.531 99.5234 492.297 98.1328 493.312 96.9453C494.328 95.7578 495.602 94.8359 497.133 94.1797C498.664 93.5078 500.445 93.1719 502.477 93.1719C504.273 93.1719 505.883 93.4609 507.305 94.0391C508.727 94.6172 509.93 95.4453 510.914 96.5234C511.914 97.6016 512.672 98.9062 513.188 100.438C513.719 101.969 513.984 103.688 513.984 105.594V108.805H493.266V103.859H506.273V103.25C506.289 102.406 506.141 101.688 505.828 101.094C505.531 100.5 505.094 100.047 504.516 99.7344C503.938 99.4219 503.234 99.2656 502.406 99.2656C501.547 99.2656 500.836 99.4531 500.273 99.8281C499.727 100.203 499.297 100.719 498.984 101.375C498.688 102.016 498.477 102.758 498.352 103.602C498.227 104.445 498.164 105.336 498.164 106.273V107.164C498.164 108.102 498.289 108.953 498.539 109.719C498.805 110.484 499.18 111.141 499.664 111.688C500.164 112.219 500.758 112.633 501.445 112.93C502.148 113.227 502.945 113.375 503.836 113.375C504.914 113.375 505.977 113.172 507.023 112.766C508.07 112.359 508.969 111.688 509.719 110.75L513.305 115.016C512.789 115.75 512.055 116.461 511.102 117.148C510.164 117.836 509.039 118.398 507.727 118.836C506.414 119.258 504.945 119.469 503.32 119.469ZM530.484 111.875C530.484 111.438 530.336 111.062 530.039 110.75C529.758 110.422 529.258 110.125 528.539 109.859C527.82 109.578 526.812 109.297 525.516 109.016C524.281 108.75 523.117 108.398 522.023 107.961C520.945 107.523 520 106.992 519.188 106.367C518.375 105.742 517.734 105 517.266 104.141C516.812 103.281 516.586 102.297 516.586 101.188C516.586 100.109 516.812 99.0938 517.266 98.1406C517.734 97.1719 518.414 96.3203 519.305 95.5859C520.211 94.8359 521.312 94.25 522.609 93.8281C523.906 93.3906 525.383 93.1719 527.039 93.1719C529.32 93.1719 531.289 93.5234 532.945 94.2266C534.602 94.9141 535.875 95.8828 536.766 97.1328C537.672 98.3672 538.125 99.7969 538.125 101.422H530.227C530.227 100.781 530.117 100.234 529.898 99.7812C529.695 99.3281 529.359 98.9844 528.891 98.75C528.422 98.5 527.797 98.375 527.016 98.375C526.469 98.375 525.969 98.4766 525.516 98.6797C525.078 98.8828 524.727 99.1641 524.461 99.5234C524.195 99.8828 524.062 100.305 524.062 100.789C524.062 101.133 524.141 101.445 524.297 101.727C524.469 101.992 524.727 102.242 525.07 102.477C525.414 102.695 525.852 102.898 526.383 103.086C526.914 103.258 527.555 103.414 528.305 103.555C530.008 103.867 531.602 104.312 533.086 104.891C534.57 105.469 535.773 106.289 536.695 107.352C537.633 108.414 538.102 109.844 538.102 111.641C538.102 112.766 537.844 113.805 537.328 114.758C536.812 115.695 536.07 116.523 535.102 117.242C534.133 117.945 532.969 118.492 531.609 118.883C530.25 119.273 528.719 119.469 527.016 119.469C524.594 119.469 522.547 119.039 520.875 118.18C519.203 117.305 517.938 116.211 517.078 114.898C516.234 113.57 515.812 112.227 515.812 110.867H523.172C523.203 111.648 523.391 112.289 523.734 112.789C524.094 113.289 524.57 113.656 525.164 113.891C525.758 114.125 526.445 114.242 527.227 114.242C527.945 114.242 528.539 114.141 529.008 113.938C529.492 113.734 529.859 113.461 530.109 113.117C530.359 112.758 530.484 112.344 530.484 111.875ZM550.148 93.6406V119H542.227V93.6406H550.148ZM541.758 87.1016C541.758 85.9766 542.164 85.0547 542.977 84.3359C543.789 83.6172 544.844 83.2578 546.141 83.2578C547.438 83.2578 548.492 83.6172 549.305 84.3359C550.117 85.0547 550.523 85.9766 550.523 87.1016C550.523 88.2266 550.117 89.1484 549.305 89.8672C548.492 90.5859 547.438 90.9453 546.141 90.9453C544.844 90.9453 543.789 90.5859 542.977 89.8672C542.164 89.1484 541.758 88.2266 541.758 87.1016ZM570.961 93.6406H578.133V118.016C578.133 120.359 577.594 122.344 576.516 123.969C575.438 125.609 573.93 126.852 571.992 127.695C570.07 128.555 567.82 128.984 565.242 128.984C564.102 128.984 562.938 128.836 561.75 128.539C560.562 128.258 559.453 127.836 558.422 127.273C557.391 126.711 556.523 126.016 555.82 125.188L559.125 120.547C559.766 121.266 560.57 121.875 561.539 122.375C562.508 122.891 563.648 123.148 564.961 123.148C566.102 123.148 567.055 122.945 567.82 122.539C568.602 122.133 569.195 121.539 569.602 120.758C570.008 119.992 570.211 119.062 570.211 117.969V99.6406L570.961 93.6406ZM554.109 106.625V106.133C554.109 104.211 554.344 102.461 554.812 100.883C555.297 99.2891 555.984 97.9219 556.875 96.7812C557.781 95.625 558.875 94.7344 560.156 94.1094C561.438 93.4844 562.883 93.1719 564.492 93.1719C566.227 93.1719 567.648 93.5078 568.758 94.1797C569.883 94.8359 570.781 95.7578 571.453 96.9453C572.141 98.1328 572.672 99.5234 573.047 101.117C573.438 102.695 573.766 104.398 574.031 106.227V106.812C573.766 108.531 573.398 110.156 572.93 111.688C572.477 113.203 571.883 114.547 571.148 115.719C570.414 116.891 569.492 117.812 568.383 118.484C567.289 119.141 565.977 119.469 564.445 119.469C562.852 119.469 561.414 119.148 560.133 118.508C558.867 117.867 557.781 116.969 556.875 115.812C555.984 114.656 555.297 113.297 554.812 111.734C554.344 110.172 554.109 108.469 554.109 106.625ZM562.008 106.133V106.625C562.008 107.578 562.094 108.461 562.266 109.273C562.453 110.086 562.734 110.805 563.109 111.43C563.484 112.039 563.945 112.516 564.492 112.859C565.055 113.203 565.711 113.375 566.461 113.375C567.602 113.375 568.523 113.133 569.227 112.648C569.93 112.164 570.438 111.477 570.75 110.586C571.062 109.695 571.195 108.648 571.148 107.445V105.594C571.18 104.562 571.109 103.656 570.938 102.875C570.766 102.078 570.492 101.414 570.117 100.883C569.758 100.352 569.273 99.9531 568.664 99.6875C568.07 99.4062 567.352 99.2656 566.508 99.2656C565.773 99.2656 565.125 99.4375 564.562 99.7812C564 100.125 563.531 100.609 563.156 101.234C562.781 101.844 562.492 102.57 562.289 103.414C562.102 104.242 562.008 105.148 562.008 106.133ZM590.438 99.0547V119H582.539V93.6406H589.945L590.438 99.0547ZM589.5 105.453L587.648 105.5C587.648 103.562 587.883 101.836 588.352 100.32C588.82 98.7891 589.484 97.4922 590.344 96.4297C591.203 95.3672 592.227 94.5625 593.414 94.0156C594.617 93.4531 595.953 93.1719 597.422 93.1719C598.594 93.1719 599.664 93.3438 600.633 93.6875C601.617 94.0312 602.461 94.5859 603.164 95.3516C603.883 96.1172 604.43 97.1328 604.805 98.3984C605.195 99.6484 605.391 101.195 605.391 103.039V119H597.445V103.016C597.445 102 597.305 101.227 597.023 100.695C596.742 100.148 596.336 99.7734 595.805 99.5703C595.273 99.3672 594.625 99.2656 593.859 99.2656C593.047 99.2656 592.359 99.4219 591.797 99.7344C591.234 100.047 590.781 100.484 590.438 101.047C590.109 101.594 589.867 102.242 589.711 102.992C589.57 103.742 589.5 104.562 589.5 105.453Z" fill="black"/>
<path d="M1134 0H1348C1356.28 0 1363 6.71573 1363 15V148C1363 156.284 1356.28 163 1348 163H1134V0Z" fill="#1682CF"/>
<path d="M1217.58 64.1667C1217.58 66.0281 1218.51 67.7419 1220.09 69.2434C1221.67 70.7429 1223.94 72.0619 1226.71 73.1553C1232.26 75.343 1239.93 76.6667 1248.5 76.6667C1257.07 76.6667 1264.74 75.343 1270.29 73.1553C1273.06 72.0619 1275.33 70.7429 1276.91 69.2434C1278.49 67.7419 1279.42 66.0281 1279.42 64.1667C1279.42 62.3052 1278.49 60.5914 1276.91 59.0899C1275.33 57.5904 1273.06 56.2714 1270.29 55.178C1264.74 52.9903 1257.07 51.6667 1248.5 51.6667C1239.93 51.6667 1232.26 52.9903 1226.71 55.178C1223.94 56.2714 1221.67 57.5904 1220.09 59.0899C1218.51 60.5914 1217.58 62.3052 1217.58 64.1667ZM1221.62 64.1667C1221.62 63.0283 1222.37 61.8878 1223.88 60.7921C1225.37 59.7041 1227.52 58.7293 1230.11 57.9144C1235.28 56.2864 1242.07 55.3333 1248.5 55.3333C1254.93 55.3333 1261.72 56.2864 1266.89 57.9144C1269.48 58.7293 1271.63 59.7041 1273.12 60.7921C1274.63 61.8878 1275.37 63.0283 1275.37 64.1667C1275.37 65.305 1274.63 66.4455 1273.12 67.5412C1271.63 68.6292 1269.48 69.604 1266.89 70.4189C1261.72 72.0469 1254.93 73 1248.5 73C1242.07 73 1235.28 72.0469 1230.11 70.4189C1227.52 69.604 1225.37 68.6292 1223.88 67.5412C1222.37 66.4455 1221.62 65.305 1221.62 64.1667Z" fill="white" stroke="white"/>
<path d="M1217.58 74.8333C1217.58 76.6948 1218.51 78.4086 1220.09 79.9101C1221.67 81.4096 1223.94 82.7286 1226.71 83.822C1232.26 86.0097 1239.93 87.3333 1248.5 87.3333C1257.07 87.3333 1264.74 86.0097 1270.29 83.822C1273.06 82.7286 1275.33 81.4096 1276.91 79.9101C1278.49 78.4086 1279.42 76.6948 1279.42 74.8333V64.1667C1279.42 63.6576 1279.19 63.1851 1278.8 62.8479C1278.42 62.5126 1277.91 62.3333 1277.4 62.3333C1276.88 62.3333 1276.37 62.5126 1275.99 62.8479C1275.61 63.1851 1275.37 63.6576 1275.37 64.1667V74.8333C1275.37 75.9717 1274.63 77.1122 1273.12 78.2079C1271.63 79.2959 1269.48 80.2707 1266.89 81.0856C1261.72 82.7136 1254.93 83.6667 1248.5 83.6667C1242.07 83.6667 1235.28 82.7136 1230.11 81.0856C1227.52 80.2707 1225.37 79.2959 1223.88 78.2079C1222.37 77.1122 1221.62 75.9717 1221.62 74.8333V64.1667C1221.62 63.6576 1221.39 63.1851 1221.01 62.8479C1220.63 62.5126 1220.12 62.3333 1219.6 62.3333C1219.09 62.3333 1218.58 62.5126 1218.2 62.8479C1217.81 63.1851 1217.58 63.6576 1217.58 64.1667V74.8333Z" fill="white" stroke="white"/>
<path d="M1217.58 86.8333C1217.58 88.6948 1218.51 90.4086 1220.09 91.9101C1221.67 93.4095 1223.94 94.7286 1226.71 95.8219C1232.26 98.0097 1239.93 99.3333 1248.5 99.3333C1257.07 99.3333 1264.74 98.0097 1270.29 95.8219C1273.06 94.7286 1275.33 93.4095 1276.91 91.9101C1278.49 90.4086 1279.42 88.6948 1279.42 86.8333V74.8333C1279.42 74.3243 1279.19 73.8517 1278.8 73.5146C1278.42 73.1792 1277.91 73 1277.4 73C1276.88 73 1276.37 73.1792 1275.99 73.5146C1275.61 73.8517 1275.37 74.3243 1275.37 74.8333V86.8333C1275.37 87.9717 1274.63 89.1122 1273.12 90.2079C1271.63 91.2958 1269.48 92.2707 1266.89 93.0856C1261.72 94.7136 1254.93 95.6667 1248.5 95.6667C1242.07 95.6667 1235.28 94.7136 1230.11 93.0856C1227.52 92.2707 1225.37 91.2958 1223.88 90.2079C1222.37 89.1122 1221.62 87.9717 1221.62 86.8333V74.8333C1221.62 74.3243 1221.39 73.8517 1221.01 73.5146C1220.63 73.1792 1220.12 73 1219.6 73C1219.09 73 1218.58 73.1792 1218.2 73.5146C1217.81 73.8517 1217.58 74.3243 1217.58 74.8333V86.8333Z" fill="white" stroke="white"/>
<path d="M1217.58 98.8333C1217.58 100.695 1218.51 102.409 1220.09 103.91C1221.67 105.41 1223.94 106.729 1226.71 107.822C1232.26 110.01 1239.93 111.333 1248.5 111.333C1257.07 111.333 1264.74 110.01 1270.29 107.822C1273.06 106.729 1275.33 105.41 1276.91 103.91C1278.49 102.409 1279.42 100.695 1279.42 98.8333V86.8333C1279.42 86.3243 1279.19 85.8517 1278.8 85.5146C1278.42 85.1792 1277.91 85 1277.4 85C1276.88 85 1276.37 85.1792 1275.99 85.5146C1275.61 85.8517 1275.37 86.3243 1275.37 86.8333V98.8333C1275.37 99.9717 1274.63 101.112 1273.12 102.208C1271.63 103.296 1269.48 104.271 1266.89 105.086C1261.72 106.714 1254.93 107.667 1248.5 107.667C1242.07 107.667 1235.28 106.714 1230.11 105.086C1227.52 104.271 1225.37 103.296 1223.88 102.208C1222.37 101.112 1221.62 99.9717 1221.62 98.8333V86.8333C1221.62 86.3243 1221.39 85.8517 1221.01 85.5146C1220.63 85.1792 1220.12 85 1219.6 85C1219.09 85 1218.58 85.1792 1218.2 85.5146C1217.81 85.8517 1217.58 86.3243 1217.58 86.8333V98.8333Z" fill="white" stroke="white"/>
</svg>
