<svg width="1363" height="163" viewBox="0 0 1363 163" fill="none" xmlns="http://www.w3.org/2000/svg">
<path d="M0 15C0 6.71573 6.71573 0 15 0H37V163H15C6.71573 163 0 156.284 0 148V15Z" fill="#424242"/>
<rect width="1097" height="163" transform="translate(37)" fill="#F0F0F0"/>
<path d="M101.906 53.9219L94.3945 51.2383V48.0859L104.602 52.375V54.6367L101.906 53.9219ZM94.3945 56.1719L101.918 53.4297L104.602 52.7852V55.0352L94.3945 59.3242V56.1719ZM112.898 43.9375H119.262C120.566 43.9375 121.688 44.1328 122.625 44.5234C123.57 44.9141 124.297 45.4922 124.805 46.2578C125.312 47.0234 125.566 47.9648 125.566 49.082C125.566 49.9961 125.41 50.7812 125.098 51.4375C124.793 52.0859 124.359 52.6289 123.797 53.0664C123.242 53.4961 122.59 53.8398 121.84 54.0977L120.727 54.6836H115.195L115.172 51.9414H119.285C119.902 51.9414 120.414 51.832 120.82 51.6133C121.227 51.3945 121.531 51.0898 121.734 50.6992C121.945 50.3086 122.051 49.8555 122.051 49.3398C122.051 48.793 121.949 48.3203 121.746 47.9219C121.543 47.5234 121.234 47.2188 120.82 47.0078C120.406 46.7969 119.887 46.6914 119.262 46.6914H116.414V61H112.898V43.9375ZM122.438 61L118.547 53.3945L122.262 53.3711L126.199 60.8359V61H122.438ZM133.898 61.2344C132.914 61.2344 132.031 61.0781 131.25 60.7656C130.469 60.4453 129.805 60.0039 129.258 59.4414C128.719 58.8789 128.305 58.2266 128.016 57.4844C127.727 56.7344 127.582 55.9375 127.582 55.0938V54.625C127.582 53.6641 127.719 52.7852 127.992 51.9883C128.266 51.1914 128.656 50.5 129.164 49.9141C129.68 49.3281 130.305 48.8789 131.039 48.5664C131.773 48.2461 132.602 48.0859 133.523 48.0859C134.422 48.0859 135.219 48.2344 135.914 48.5312C136.609 48.8281 137.191 49.25 137.66 49.7969C138.137 50.3438 138.496 51 138.738 51.7656C138.98 52.5234 139.102 53.3672 139.102 54.2969V55.7031H129.023V53.4531H135.785V53.1953C135.785 52.7266 135.699 52.3086 135.527 51.9414C135.363 51.5664 135.113 51.2695 134.777 51.0508C134.441 50.832 134.012 50.7227 133.488 50.7227C133.043 50.7227 132.66 50.8203 132.34 51.0156C132.02 51.2109 131.758 51.4844 131.555 51.8359C131.359 52.1875 131.211 52.6016 131.109 53.0781C131.016 53.5469 130.969 54.0625 130.969 54.625V55.0938C130.969 55.6016 131.039 56.0703 131.18 56.5C131.328 56.9297 131.535 57.3008 131.801 57.6133C132.074 57.9258 132.402 58.168 132.785 58.3398C133.176 58.5117 133.617 58.5977 134.109 58.5977C134.719 58.5977 135.285 58.4805 135.809 58.2461C136.34 58.0039 136.797 57.6406 137.18 57.1562L138.82 58.9375C138.555 59.3203 138.191 59.6875 137.73 60.0391C137.277 60.3906 136.73 60.6797 136.09 60.9062C135.449 61.125 134.719 61.2344 133.898 61.2344ZM146.262 58.5977C146.676 58.5977 147.043 58.5195 147.363 58.3633C147.684 58.1992 147.934 57.9727 148.113 57.6836C148.301 57.3867 148.398 57.0391 148.406 56.6406H151.582C151.574 57.5312 151.336 58.3242 150.867 59.0195C150.398 59.707 149.77 60.25 148.98 60.6484C148.191 61.0391 147.309 61.2344 146.332 61.2344C145.348 61.2344 144.488 61.0703 143.754 60.7422C143.027 60.4141 142.422 59.9609 141.938 59.3828C141.453 58.7969 141.09 58.1172 140.848 57.3438C140.605 56.5625 140.484 55.7266 140.484 54.8359V54.4961C140.484 53.5977 140.605 52.7617 140.848 51.9883C141.09 51.207 141.453 50.5273 141.938 49.9492C142.422 49.3633 143.027 48.9062 143.754 48.5781C144.48 48.25 145.332 48.0859 146.309 48.0859C147.348 48.0859 148.258 48.2852 149.039 48.6836C149.828 49.082 150.445 49.6523 150.891 50.3945C151.344 51.1289 151.574 52 151.582 53.0078H148.406C148.398 52.5859 148.309 52.2031 148.137 51.8594C147.973 51.5156 147.73 51.2422 147.41 51.0391C147.098 50.8281 146.711 50.7227 146.25 50.7227C145.758 50.7227 145.355 50.8281 145.043 51.0391C144.73 51.2422 144.488 51.5234 144.316 51.8828C144.145 52.2344 144.023 52.6367 143.953 53.0898C143.891 53.5352 143.859 54.0039 143.859 54.4961V54.8359C143.859 55.3281 143.891 55.8008 143.953 56.2539C144.016 56.707 144.133 57.1094 144.305 57.4609C144.484 57.8125 144.73 58.0898 145.043 58.293C145.355 58.4961 145.762 58.5977 146.262 58.5977ZM157.102 48.3203V61H153.715V48.3203H157.102ZM153.504 45.0156C153.504 44.5234 153.676 44.1172 154.02 43.7969C154.363 43.4766 154.824 43.3164 155.402 43.3164C155.973 43.3164 156.43 43.4766 156.773 43.7969C157.125 44.1172 157.301 44.5234 157.301 45.0156C157.301 45.5078 157.125 45.9141 156.773 46.2344C156.43 46.5547 155.973 46.7148 155.402 46.7148C154.824 46.7148 154.363 46.5547 154.02 46.2344C153.676 45.9141 153.504 45.5078 153.504 45.0156ZM167.379 58.2344V43H170.777V61H167.719L167.379 58.2344ZM159.363 54.8125V54.5664C159.363 53.5977 159.473 52.7188 159.691 51.9297C159.91 51.1328 160.23 50.4492 160.652 49.8789C161.074 49.3086 161.594 48.8672 162.211 48.5547C162.828 48.2422 163.531 48.0859 164.32 48.0859C165.062 48.0859 165.711 48.2422 166.266 48.5547C166.828 48.8672 167.305 49.3125 167.695 49.8906C168.094 50.4609 168.414 51.1367 168.656 51.918C168.898 52.6914 169.074 53.5391 169.184 54.4609V55C169.074 55.8828 168.898 56.7031 168.656 57.4609C168.414 58.2188 168.094 58.8828 167.695 59.4531C167.305 60.0156 166.828 60.4531 166.266 60.7656C165.703 61.0781 165.047 61.2344 164.297 61.2344C163.508 61.2344 162.805 61.0742 162.188 60.7539C161.578 60.4336 161.062 59.9844 160.641 59.4062C160.227 58.8281 159.91 58.1484 159.691 57.3672C159.473 56.5859 159.363 55.7344 159.363 54.8125ZM162.738 54.5664V54.8125C162.738 55.3359 162.777 55.8242 162.855 56.2773C162.941 56.7305 163.078 57.1328 163.266 57.4844C163.461 57.8281 163.711 58.0977 164.016 58.293C164.328 58.4805 164.707 58.5742 165.152 58.5742C165.73 58.5742 166.207 58.4453 166.582 58.1875C166.957 57.9219 167.242 57.5586 167.438 57.0977C167.641 56.6367 167.758 56.1055 167.789 55.5039V53.9688C167.766 53.4766 167.695 53.0352 167.578 52.6445C167.469 52.2461 167.305 51.9062 167.086 51.625C166.875 51.3438 166.609 51.125 166.289 50.9688C165.977 50.8125 165.605 50.7344 165.176 50.7344C164.738 50.7344 164.363 50.8359 164.051 51.0391C163.738 51.2344 163.484 51.5039 163.289 51.8477C163.102 52.1914 162.961 52.5977 162.867 53.0664C162.781 53.5273 162.738 54.0273 162.738 54.5664ZM176.977 48.3203V61H173.59V48.3203H176.977ZM173.379 45.0156C173.379 44.5234 173.551 44.1172 173.895 43.7969C174.238 43.4766 174.699 43.3164 175.277 43.3164C175.848 43.3164 176.305 43.4766 176.648 43.7969C177 44.1172 177.176 44.5234 177.176 45.0156C177.176 45.5078 177 45.9141 176.648 46.2344C176.305 46.5547 175.848 46.7148 175.277 46.7148C174.699 46.7148 174.238 46.5547 173.895 46.2344C173.551 45.9141 173.379 45.5078 173.379 45.0156ZM184.078 58.5391L186.891 48.3203H190.418L186.141 61H184.008L184.078 58.5391ZM182.145 48.3203L184.969 58.5508L185.027 61H182.883L178.605 48.3203H182.145ZM195.492 48.3203V61H192.105V48.3203H195.492ZM191.895 45.0156C191.895 44.5234 192.066 44.1172 192.41 43.7969C192.754 43.4766 193.215 43.3164 193.793 43.3164C194.363 43.3164 194.82 43.4766 195.164 43.7969C195.516 44.1172 195.691 44.5234 195.691 45.0156C195.691 45.5078 195.516 45.9141 195.164 46.2344C194.82 46.5547 194.363 46.7148 193.793 46.7148C193.215 46.7148 192.754 46.5547 192.41 46.2344C192.066 45.9141 191.895 45.5078 191.895 45.0156ZM205.137 57.4961C205.137 57.2539 205.066 57.0352 204.926 56.8398C204.785 56.6445 204.523 56.4648 204.141 56.3008C203.766 56.1289 203.223 55.9727 202.512 55.832C201.871 55.6914 201.273 55.5156 200.719 55.3047C200.172 55.0859 199.695 54.8242 199.289 54.5195C198.891 54.2148 198.578 53.8555 198.352 53.4414C198.125 53.0195 198.012 52.5391 198.012 52C198.012 51.4688 198.125 50.9688 198.352 50.5C198.586 50.0312 198.918 49.6172 199.348 49.2578C199.785 48.8906 200.316 48.6055 200.941 48.4023C201.574 48.1914 202.285 48.0859 203.074 48.0859C204.176 48.0859 205.121 48.2617 205.91 48.6133C206.707 48.9648 207.316 49.4492 207.738 50.0664C208.168 50.6758 208.383 51.3711 208.383 52.1523H205.008C205.008 51.8242 204.938 51.5312 204.797 51.2734C204.664 51.0078 204.453 50.8008 204.164 50.6523C203.883 50.4961 203.516 50.418 203.062 50.418C202.688 50.418 202.363 50.4844 202.09 50.6172C201.816 50.7422 201.605 50.9141 201.457 51.1328C201.316 51.3438 201.246 51.5781 201.246 51.8359C201.246 52.0312 201.285 52.207 201.363 52.3633C201.449 52.5117 201.586 52.6484 201.773 52.7734C201.961 52.8984 202.203 53.0156 202.5 53.125C202.805 53.2266 203.18 53.3203 203.625 53.4062C204.539 53.5938 205.355 53.8398 206.074 54.1445C206.793 54.4414 207.363 54.8477 207.785 55.3633C208.207 55.8711 208.418 56.5391 208.418 57.3672C208.418 57.9297 208.293 58.4453 208.043 58.9141C207.793 59.3828 207.434 59.793 206.965 60.1445C206.496 60.4883 205.934 60.7578 205.277 60.9531C204.629 61.1406 203.898 61.2344 203.086 61.2344C201.906 61.2344 200.906 61.0234 200.086 60.6016C199.273 60.1797 198.656 59.6445 198.234 58.9961C197.82 58.3398 197.613 57.668 197.613 56.9805H200.812C200.828 57.4414 200.945 57.8125 201.164 58.0938C201.391 58.375 201.676 58.5781 202.02 58.7031C202.371 58.8281 202.75 58.8906 203.156 58.8906C203.594 58.8906 203.957 58.832 204.246 58.7148C204.535 58.5898 204.754 58.4258 204.902 58.2227C205.059 58.0117 205.137 57.7695 205.137 57.4961ZM213.984 50.9453V61H210.598V48.3203H213.773L213.984 50.9453ZM213.516 54.2148H212.578C212.578 53.332 212.684 52.5195 212.895 51.7773C213.113 51.0273 213.43 50.3789 213.844 49.832C214.266 49.2773 214.785 48.8477 215.402 48.543C216.02 48.2383 216.734 48.0859 217.547 48.0859C218.109 48.0859 218.625 48.1719 219.094 48.3438C219.562 48.5078 219.965 48.7695 220.301 49.1289C220.645 49.4805 220.91 49.9414 221.098 50.5117C221.285 51.0742 221.379 51.75 221.379 52.5391V61H218.004V52.9141C218.004 52.3359 217.926 51.8906 217.77 51.5781C217.613 51.2656 217.391 51.0469 217.102 50.9219C216.82 50.7969 216.48 50.7344 216.082 50.7344C215.645 50.7344 215.262 50.8242 214.934 51.0039C214.613 51.1836 214.348 51.4336 214.137 51.7539C213.926 52.0664 213.77 52.4336 213.668 52.8555C213.566 53.2773 213.516 53.7305 213.516 54.2148ZM221.062 53.8281L219.855 53.9805C219.855 53.1523 219.957 52.3828 220.16 51.6719C220.371 50.9609 220.68 50.3359 221.086 49.7969C221.5 49.2578 222.012 48.8398 222.621 48.543C223.23 48.2383 223.934 48.0859 224.73 48.0859C225.34 48.0859 225.895 48.1758 226.395 48.3555C226.895 48.5273 227.32 48.8047 227.672 49.1875C228.031 49.5625 228.305 50.0547 228.492 50.6641C228.688 51.2734 228.785 52.0195 228.785 52.9023V61H225.398V52.9023C225.398 52.3164 225.32 51.8711 225.164 51.5664C225.016 51.2539 224.797 51.0391 224.508 50.9219C224.227 50.7969 223.891 50.7344 223.5 50.7344C223.094 50.7344 222.738 50.8164 222.434 50.9805C222.129 51.1367 221.875 51.3555 221.672 51.6367C221.469 51.918 221.316 52.2461 221.215 52.6211C221.113 52.9883 221.062 53.3906 221.062 53.8281ZM237.586 43.9375H243.949C245.254 43.9375 246.375 44.1328 247.312 44.5234C248.258 44.9141 248.984 45.4922 249.492 46.2578C250 47.0234 250.254 47.9648 250.254 49.082C250.254 49.9961 250.098 50.7812 249.785 51.4375C249.48 52.0859 249.047 52.6289 248.484 53.0664C247.93 53.4961 247.277 53.8398 246.527 54.0977L245.414 54.6836H239.883L239.859 51.9414H243.973C244.59 51.9414 245.102 51.832 245.508 51.6133C245.914 51.3945 246.219 51.0898 246.422 50.6992C246.633 50.3086 246.738 49.8555 246.738 49.3398C246.738 48.793 246.637 48.3203 246.434 47.9219C246.23 47.5234 245.922 47.2188 245.508 47.0078C245.094 46.7969 244.574 46.6914 243.949 46.6914H241.102V61H237.586V43.9375ZM247.125 61L243.234 53.3945L246.949 53.3711L250.887 60.8359V61H247.125ZM259.594 58.1406V52.4922C259.594 52.0859 259.527 51.7383 259.395 51.4492C259.262 51.1523 259.055 50.9219 258.773 50.7578C258.5 50.5938 258.145 50.5117 257.707 50.5117C257.332 50.5117 257.008 50.5781 256.734 50.7109C256.461 50.8359 256.25 51.0195 256.102 51.2617C255.953 51.4961 255.879 51.7734 255.879 52.0938H252.504C252.504 51.5547 252.629 51.043 252.879 50.5586C253.129 50.0742 253.492 49.6484 253.969 49.2812C254.445 48.9062 255.012 48.6133 255.668 48.4023C256.332 48.1914 257.074 48.0859 257.895 48.0859C258.879 48.0859 259.754 48.25 260.52 48.5781C261.285 48.9062 261.887 49.3984 262.324 50.0547C262.77 50.7109 262.992 51.5312 262.992 52.5156V57.9414C262.992 58.6367 263.035 59.207 263.121 59.6523C263.207 60.0898 263.332 60.4727 263.496 60.8008V61H260.086C259.922 60.6562 259.797 60.2266 259.711 59.7109C259.633 59.1875 259.594 58.6641 259.594 58.1406ZM260.039 53.2773L260.062 55.1875H258.176C257.73 55.1875 257.344 55.2383 257.016 55.3398C256.688 55.4414 256.418 55.5859 256.207 55.7734C255.996 55.9531 255.84 56.1641 255.738 56.4062C255.645 56.6484 255.598 56.9141 255.598 57.2031C255.598 57.4922 255.664 57.7539 255.797 57.9883C255.93 58.2148 256.121 58.3945 256.371 58.5273C256.621 58.6523 256.914 58.7148 257.25 58.7148C257.758 58.7148 258.199 58.6133 258.574 58.4102C258.949 58.207 259.238 57.957 259.441 57.6602C259.652 57.3633 259.762 57.082 259.77 56.8164L260.66 58.2461C260.535 58.5664 260.363 58.8984 260.145 59.2422C259.934 59.5859 259.664 59.9102 259.336 60.2148C259.008 60.5117 258.613 60.7578 258.152 60.9531C257.691 61.1406 257.145 61.2344 256.512 61.2344C255.707 61.2344 254.977 61.0742 254.32 60.7539C253.672 60.4258 253.156 59.9766 252.773 59.4062C252.398 58.8281 252.211 58.1719 252.211 57.4375C252.211 56.7734 252.336 56.1836 252.586 55.668C252.836 55.1523 253.203 54.7188 253.688 54.3672C254.18 54.0078 254.793 53.7383 255.527 53.5586C256.262 53.3711 257.113 53.2773 258.082 53.2773H260.039ZM273.082 58.2344V43H276.48V61H273.422L273.082 58.2344ZM265.066 54.8125V54.5664C265.066 53.5977 265.176 52.7188 265.395 51.9297C265.613 51.1328 265.934 50.4492 266.355 49.8789C266.777 49.3086 267.297 48.8672 267.914 48.5547C268.531 48.2422 269.234 48.0859 270.023 48.0859C270.766 48.0859 271.414 48.2422 271.969 48.5547C272.531 48.8672 273.008 49.3125 273.398 49.8906C273.797 50.4609 274.117 51.1367 274.359 51.918C274.602 52.6914 274.777 53.5391 274.887 54.4609V55C274.777 55.8828 274.602 56.7031 274.359 57.4609C274.117 58.2188 273.797 58.8828 273.398 59.4531C273.008 60.0156 272.531 60.4531 271.969 60.7656C271.406 61.0781 270.75 61.2344 270 61.2344C269.211 61.2344 268.508 61.0742 267.891 60.7539C267.281 60.4336 266.766 59.9844 266.344 59.4062C265.93 58.8281 265.613 58.1484 265.395 57.3672C265.176 56.5859 265.066 55.7344 265.066 54.8125ZM268.441 54.5664V54.8125C268.441 55.3359 268.48 55.8242 268.559 56.2773C268.645 56.7305 268.781 57.1328 268.969 57.4844C269.164 57.8281 269.414 58.0977 269.719 58.293C270.031 58.4805 270.41 58.5742 270.855 58.5742C271.434 58.5742 271.91 58.4453 272.285 58.1875C272.66 57.9219 272.945 57.5586 273.141 57.0977C273.344 56.6367 273.461 56.1055 273.492 55.5039V53.9688C273.469 53.4766 273.398 53.0352 273.281 52.6445C273.172 52.2461 273.008 51.9062 272.789 51.625C272.578 51.3438 272.312 51.125 271.992 50.9688C271.68 50.8125 271.309 50.7344 270.879 50.7344C270.441 50.7344 270.066 50.8359 269.754 51.0391C269.441 51.2344 269.188 51.5039 268.992 51.8477C268.805 52.1914 268.664 52.5977 268.57 53.0664C268.484 53.5273 268.441 54.0273 268.441 54.5664ZM285.961 58.1406V52.4922C285.961 52.0859 285.895 51.7383 285.762 51.4492C285.629 51.1523 285.422 50.9219 285.141 50.7578C284.867 50.5938 284.512 50.5117 284.074 50.5117C283.699 50.5117 283.375 50.5781 283.102 50.7109C282.828 50.8359 282.617 51.0195 282.469 51.2617C282.32 51.4961 282.246 51.7734 282.246 52.0938H278.871C278.871 51.5547 278.996 51.043 279.246 50.5586C279.496 50.0742 279.859 49.6484 280.336 49.2812C280.812 48.9062 281.379 48.6133 282.035 48.4023C282.699 48.1914 283.441 48.0859 284.262 48.0859C285.246 48.0859 286.121 48.25 286.887 48.5781C287.652 48.9062 288.254 49.3984 288.691 50.0547C289.137 50.7109 289.359 51.5312 289.359 52.5156V57.9414C289.359 58.6367 289.402 59.207 289.488 59.6523C289.574 60.0898 289.699 60.4727 289.863 60.8008V61H286.453C286.289 60.6562 286.164 60.2266 286.078 59.7109C286 59.1875 285.961 58.6641 285.961 58.1406ZM286.406 53.2773L286.43 55.1875H284.543C284.098 55.1875 283.711 55.2383 283.383 55.3398C283.055 55.4414 282.785 55.5859 282.574 55.7734C282.363 55.9531 282.207 56.1641 282.105 56.4062C282.012 56.6484 281.965 56.9141 281.965 57.2031C281.965 57.4922 282.031 57.7539 282.164 57.9883C282.297 58.2148 282.488 58.3945 282.738 58.5273C282.988 58.6523 283.281 58.7148 283.617 58.7148C284.125 58.7148 284.566 58.6133 284.941 58.4102C285.316 58.207 285.605 57.957 285.809 57.6602C286.02 57.3633 286.129 57.082 286.137 56.8164L287.027 58.2461C286.902 58.5664 286.73 58.8984 286.512 59.2422C286.301 59.5859 286.031 59.9102 285.703 60.2148C285.375 60.5117 284.98 60.7578 284.52 60.9531C284.059 61.1406 283.512 61.2344 282.879 61.2344C282.074 61.2344 281.344 61.0742 280.688 60.7539C280.039 60.4258 279.523 59.9766 279.141 59.4062C278.766 58.8281 278.578 58.1719 278.578 57.4375C278.578 56.7734 278.703 56.1836 278.953 55.668C279.203 55.1523 279.57 54.7188 280.055 54.3672C280.547 54.0078 281.16 53.7383 281.895 53.5586C282.629 53.3711 283.48 53.2773 284.449 53.2773H286.406ZM295.336 51.0859V61H291.961V48.3203H295.137L295.336 51.0859ZM299.156 48.2383L299.098 51.3672C298.934 51.3438 298.734 51.3242 298.5 51.3086C298.273 51.2852 298.066 51.2734 297.879 51.2734C297.402 51.2734 296.988 51.3359 296.637 51.4609C296.293 51.5781 296.004 51.7539 295.77 51.9883C295.543 52.2227 295.371 52.5078 295.254 52.8438C295.145 53.1797 295.082 53.5625 295.066 53.9922L294.387 53.7812C294.387 52.9609 294.469 52.207 294.633 51.5195C294.797 50.8242 295.035 50.2188 295.348 49.7031C295.668 49.1875 296.059 48.7891 296.52 48.5078C296.98 48.2266 297.508 48.0859 298.102 48.0859C298.289 48.0859 298.48 48.1016 298.676 48.1328C298.871 48.1562 299.031 48.1914 299.156 48.2383Z" fill="#888888"/>
<path d="M112.125 84.875V119H103.898V84.875H112.125ZM122.391 84.875V91.2266H93.8672V84.875H122.391ZM135.68 119.469C133.617 119.469 131.773 119.148 130.148 118.508C128.523 117.852 127.148 116.953 126.023 115.812C124.914 114.672 124.062 113.359 123.469 111.875C122.891 110.391 122.602 108.82 122.602 107.164V106.273C122.602 104.414 122.859 102.695 123.375 101.117C123.891 99.5234 124.656 98.1328 125.672 96.9453C126.688 95.7578 127.961 94.8359 129.492 94.1797C131.023 93.5078 132.805 93.1719 134.836 93.1719C136.633 93.1719 138.242 93.4609 139.664 94.0391C141.086 94.6172 142.289 95.4453 143.273 96.5234C144.273 97.6016 145.031 98.9062 145.547 100.438C146.078 101.969 146.344 103.688 146.344 105.594V108.805H125.625V103.859H138.633V103.25C138.648 102.406 138.5 101.688 138.188 101.094C137.891 100.5 137.453 100.047 136.875 99.7344C136.297 99.4219 135.594 99.2656 134.766 99.2656C133.906 99.2656 133.195 99.4531 132.633 99.8281C132.086 100.203 131.656 100.719 131.344 101.375C131.047 102.016 130.836 102.758 130.711 103.602C130.586 104.445 130.523 105.336 130.523 106.273V107.164C130.523 108.102 130.648 108.953 130.898 109.719C131.164 110.484 131.539 111.141 132.023 111.688C132.523 112.219 133.117 112.633 133.805 112.93C134.508 113.227 135.305 113.375 136.195 113.375C137.273 113.375 138.336 113.172 139.383 112.766C140.43 112.359 141.328 111.688 142.078 110.75L145.664 115.016C145.148 115.75 144.414 116.461 143.461 117.148C142.523 117.836 141.398 118.398 140.086 118.836C138.773 119.258 137.305 119.469 135.68 119.469ZM160.266 113.375C161 113.375 161.625 113.242 162.141 112.977C162.672 112.695 163.07 112.305 163.336 111.805C163.617 111.289 163.75 110.672 163.734 109.953H171.164C171.18 111.859 170.711 113.531 169.758 114.969C168.82 116.391 167.539 117.5 165.914 118.297C164.305 119.078 162.484 119.469 160.453 119.469C158.469 119.469 156.734 119.148 155.25 118.508C153.766 117.852 152.523 116.945 151.523 115.789C150.539 114.617 149.797 113.25 149.297 111.688C148.812 110.125 148.57 108.43 148.57 106.602V106.062C148.57 104.234 148.812 102.539 149.297 100.977C149.797 99.3984 150.539 98.0312 151.523 96.875C152.523 95.7031 153.758 94.7969 155.227 94.1562C156.711 93.5 158.438 93.1719 160.406 93.1719C162.516 93.1719 164.375 93.5703 165.984 94.3672C167.609 95.1641 168.883 96.3203 169.805 97.8359C170.727 99.3516 171.18 101.188 171.164 103.344H163.734C163.75 102.578 163.633 101.891 163.383 101.281C163.133 100.672 162.742 100.188 162.211 99.8281C161.695 99.4531 161.031 99.2656 160.219 99.2656C159.406 99.2656 158.75 99.4453 158.25 99.8047C157.75 100.164 157.367 100.664 157.102 101.305C156.852 101.93 156.68 102.648 156.586 103.461C156.508 104.273 156.469 105.141 156.469 106.062V106.602C156.469 107.539 156.508 108.422 156.586 109.25C156.68 110.062 156.859 110.781 157.125 111.406C157.391 112.016 157.773 112.5 158.273 112.859C158.773 113.203 159.438 113.375 160.266 113.375ZM182.273 83V119H174.375V83H182.273ZM181.336 105.453L179.484 105.5C179.484 103.719 179.703 102.078 180.141 100.578C180.578 99.0781 181.203 97.7734 182.016 96.6641C182.828 95.5547 183.805 94.6953 184.945 94.0859C186.086 93.4766 187.352 93.1719 188.742 93.1719C189.992 93.1719 191.133 93.3516 192.164 93.7109C193.211 94.0703 194.109 94.6484 194.859 95.4453C195.625 96.2422 196.211 97.2812 196.617 98.5625C197.039 99.8438 197.25 101.406 197.25 103.25V119H189.305V103.203C189.305 102.172 189.156 101.375 188.859 100.812C188.578 100.234 188.172 99.8359 187.641 99.6172C187.109 99.3828 186.461 99.2656 185.695 99.2656C184.773 99.2656 184.023 99.4219 183.445 99.7344C182.867 100.047 182.422 100.484 182.109 101.047C181.812 101.594 181.609 102.242 181.5 102.992C181.391 103.742 181.336 104.562 181.336 105.453ZM231.539 109.93C231.539 109.398 231.461 108.922 231.305 108.5C231.148 108.062 230.859 107.656 230.438 107.281C230.016 106.906 229.406 106.531 228.609 106.156C227.828 105.766 226.797 105.359 225.516 104.938C224.016 104.438 222.57 103.875 221.18 103.25C219.789 102.609 218.547 101.867 217.453 101.023C216.359 100.164 215.492 99.1641 214.852 98.0234C214.211 96.8672 213.891 95.5234 213.891 93.9922C213.891 92.5234 214.219 91.2031 214.875 90.0312C215.531 88.8438 216.445 87.8359 217.617 87.0078C218.805 86.1641 220.195 85.5234 221.789 85.0859C223.383 84.6328 225.125 84.4062 227.016 84.4062C229.516 84.4062 231.719 84.8438 233.625 85.7188C235.547 86.5781 237.047 87.8047 238.125 89.3984C239.219 90.9766 239.766 92.8438 239.766 95H231.586C231.586 94.1406 231.406 93.3828 231.047 92.7266C230.703 92.0703 230.18 91.5547 229.477 91.1797C228.773 90.8047 227.891 90.6172 226.828 90.6172C225.797 90.6172 224.93 90.7734 224.227 91.0859C223.523 91.3984 222.992 91.8203 222.633 92.3516C222.273 92.8672 222.094 93.4375 222.094 94.0625C222.094 94.5781 222.234 95.0469 222.516 95.4688C222.812 95.875 223.227 96.2578 223.758 96.6172C224.305 96.9766 224.961 97.3203 225.727 97.6484C226.508 97.9766 227.383 98.2969 228.352 98.6094C230.164 99.1875 231.773 99.8359 233.18 100.555C234.602 101.258 235.797 102.062 236.766 102.969C237.75 103.859 238.492 104.875 238.992 106.016C239.508 107.156 239.766 108.445 239.766 109.883C239.766 111.414 239.469 112.773 238.875 113.961C238.281 115.148 237.43 116.156 236.32 116.984C235.211 117.797 233.883 118.414 232.336 118.836C230.789 119.258 229.062 119.469 227.156 119.469C225.406 119.469 223.68 119.25 221.977 118.812C220.289 118.359 218.758 117.672 217.383 116.75C216.008 115.812 214.906 114.617 214.078 113.164C213.266 111.695 212.859 109.953 212.859 107.938H221.109C221.109 108.938 221.242 109.781 221.508 110.469C221.773 111.156 222.164 111.711 222.68 112.133C223.195 112.539 223.828 112.836 224.578 113.023C225.328 113.195 226.188 113.281 227.156 113.281C228.203 113.281 229.047 113.133 229.688 112.836C230.328 112.523 230.797 112.117 231.094 111.617C231.391 111.102 231.539 110.539 231.539 109.93ZM256.992 93.6406V99.125H241.711V93.6406H256.992ZM244.922 87.3359H252.82V110.727C252.82 111.398 252.898 111.922 253.055 112.297C253.211 112.656 253.477 112.914 253.852 113.07C254.242 113.211 254.758 113.281 255.398 113.281C255.852 113.281 256.227 113.273 256.523 113.258C256.82 113.227 257.102 113.188 257.367 113.141V118.789C256.695 119.008 255.992 119.172 255.258 119.281C254.523 119.406 253.742 119.469 252.914 119.469C251.227 119.469 249.781 119.203 248.578 118.672C247.391 118.141 246.484 117.305 245.859 116.164C245.234 115.023 244.922 113.539 244.922 111.711V87.3359ZM273.305 112.625V102.172C273.305 101.453 273.203 100.836 273 100.32C272.797 99.8047 272.477 99.4062 272.039 99.125C271.602 98.8281 271.016 98.6797 270.281 98.6797C269.688 98.6797 269.18 98.7812 268.758 98.9844C268.336 99.1875 268.016 99.4922 267.797 99.8984C267.578 100.305 267.469 100.82 267.469 101.445H259.57C259.57 100.273 259.828 99.1875 260.344 98.1875C260.875 97.1719 261.625 96.2891 262.594 95.5391C263.578 94.7891 264.75 94.2109 266.109 93.8047C267.484 93.3828 269.016 93.1719 270.703 93.1719C272.719 93.1719 274.516 93.5078 276.094 94.1797C277.688 94.8516 278.945 95.8594 279.867 97.2031C280.789 98.5312 281.25 100.203 281.25 102.219V112.602C281.25 114.258 281.344 115.516 281.531 116.375C281.719 117.219 281.984 117.961 282.328 118.602V119H274.406C274.031 118.219 273.75 117.266 273.562 116.141C273.391 115 273.305 113.828 273.305 112.625ZM274.266 103.508L274.312 107.727H270.82C270.086 107.727 269.461 107.828 268.945 108.031C268.445 108.234 268.039 108.516 267.727 108.875C267.43 109.219 267.211 109.609 267.07 110.047C266.945 110.484 266.883 110.945 266.883 111.43C266.883 111.898 266.992 112.32 267.211 112.695C267.445 113.055 267.758 113.336 268.148 113.539C268.539 113.742 268.977 113.844 269.461 113.844C270.336 113.844 271.078 113.68 271.688 113.352C272.312 113.008 272.789 112.594 273.117 112.109C273.445 111.625 273.609 111.172 273.609 110.75L275.344 113.984C275.031 114.609 274.672 115.242 274.266 115.883C273.875 116.523 273.383 117.117 272.789 117.664C272.211 118.195 271.5 118.633 270.656 118.977C269.812 119.305 268.789 119.469 267.586 119.469C266.023 119.469 264.586 119.148 263.273 118.508C261.977 117.867 260.938 116.977 260.156 115.836C259.375 114.68 258.984 113.352 258.984 111.852C258.984 110.539 259.219 109.367 259.688 108.336C260.172 107.305 260.898 106.43 261.867 105.711C262.836 104.992 264.07 104.445 265.57 104.07C267.07 103.695 268.836 103.508 270.867 103.508H274.266ZM296.344 113.375C297.078 113.375 297.703 113.242 298.219 112.977C298.75 112.695 299.148 112.305 299.414 111.805C299.695 111.289 299.828 110.672 299.812 109.953H307.242C307.258 111.859 306.789 113.531 305.836 114.969C304.898 116.391 303.617 117.5 301.992 118.297C300.383 119.078 298.562 119.469 296.531 119.469C294.547 119.469 292.812 119.148 291.328 118.508C289.844 117.852 288.602 116.945 287.602 115.789C286.617 114.617 285.875 113.25 285.375 111.688C284.891 110.125 284.648 108.43 284.648 106.602V106.062C284.648 104.234 284.891 102.539 285.375 100.977C285.875 99.3984 286.617 98.0312 287.602 96.875C288.602 95.7031 289.836 94.7969 291.305 94.1562C292.789 93.5 294.516 93.1719 296.484 93.1719C298.594 93.1719 300.453 93.5703 302.062 94.3672C303.688 95.1641 304.961 96.3203 305.883 97.8359C306.805 99.3516 307.258 101.188 307.242 103.344H299.812C299.828 102.578 299.711 101.891 299.461 101.281C299.211 100.672 298.82 100.188 298.289 99.8281C297.773 99.4531 297.109 99.2656 296.297 99.2656C295.484 99.2656 294.828 99.4453 294.328 99.8047C293.828 100.164 293.445 100.664 293.18 101.305C292.93 101.93 292.758 102.648 292.664 103.461C292.586 104.273 292.547 105.141 292.547 106.062V106.602C292.547 107.539 292.586 108.422 292.664 109.25C292.758 110.062 292.938 110.781 293.203 111.406C293.469 112.016 293.852 112.5 294.352 112.859C294.852 113.203 295.516 113.375 296.344 113.375ZM318.586 82.9766V119H310.688V82.9766H318.586ZM334.805 93.6406L323.789 106.555L318.023 112.32L314.578 107.305L319.383 101.047L325.336 93.6406H334.805ZM326.344 119L319.57 107.445L325.406 103.297L335.391 119H326.344ZM350.156 111.875C350.156 111.438 350.008 111.062 349.711 110.75C349.43 110.422 348.93 110.125 348.211 109.859C347.492 109.578 346.484 109.297 345.188 109.016C343.953 108.75 342.789 108.398 341.695 107.961C340.617 107.523 339.672 106.992 338.859 106.367C338.047 105.742 337.406 105 336.938 104.141C336.484 103.281 336.258 102.297 336.258 101.188C336.258 100.109 336.484 99.0938 336.938 98.1406C337.406 97.1719 338.086 96.3203 338.977 95.5859C339.883 94.8359 340.984 94.25 342.281 93.8281C343.578 93.3906 345.055 93.1719 346.711 93.1719C348.992 93.1719 350.961 93.5234 352.617 94.2266C354.273 94.9141 355.547 95.8828 356.438 97.1328C357.344 98.3672 357.797 99.7969 357.797 101.422H349.898C349.898 100.781 349.789 100.234 349.57 99.7812C349.367 99.3281 349.031 98.9844 348.562 98.75C348.094 98.5 347.469 98.375 346.688 98.375C346.141 98.375 345.641 98.4766 345.188 98.6797C344.75 98.8828 344.398 99.1641 344.133 99.5234C343.867 99.8828 343.734 100.305 343.734 100.789C343.734 101.133 343.812 101.445 343.969 101.727C344.141 101.992 344.398 102.242 344.742 102.477C345.086 102.695 345.523 102.898 346.055 103.086C346.586 103.258 347.227 103.414 347.977 103.555C349.68 103.867 351.273 104.312 352.758 104.891C354.242 105.469 355.445 106.289 356.367 107.352C357.305 108.414 357.773 109.844 357.773 111.641C357.773 112.766 357.516 113.805 357 114.758C356.484 115.695 355.742 116.523 354.773 117.242C353.805 117.945 352.641 118.492 351.281 118.883C349.922 119.273 348.391 119.469 346.688 119.469C344.266 119.469 342.219 119.039 340.547 118.18C338.875 117.305 337.609 116.211 336.75 114.898C335.906 113.57 335.484 112.227 335.484 110.867H342.844C342.875 111.648 343.062 112.289 343.406 112.789C343.766 113.289 344.242 113.656 344.836 113.891C345.43 114.125 346.117 114.242 346.898 114.242C347.617 114.242 348.211 114.141 348.68 113.938C349.164 113.734 349.531 113.461 349.781 113.117C350.031 112.758 350.156 112.344 350.156 111.875Z" fill="black"/>
<path d="M1134 0H1348C1356.28 0 1363 6.71573 1363 15V148C1363 156.284 1356.28 163 1348 163H1134V0Z" fill="#1682CF"/>
<path fill-rule="evenodd" clip-rule="evenodd" d="M1219.98 53C1219.85 53 1219.73 53.0527 1219.64 53.1464C1219.55 53.2402 1219.5 53.3674 1219.5 53.5V109.5C1219.5 109.633 1219.55 109.76 1219.64 109.854C1219.73 109.947 1219.85 110 1219.98 110H1277.02C1277.15 110 1277.27 109.947 1277.36 109.854C1277.45 109.76 1277.5 109.633 1277.5 109.5V64C1277.5 63.8674 1277.45 63.7402 1277.36 63.6464C1277.27 63.5527 1277.15 63.5 1277.02 63.5H1248.5C1247.65 63.5 1246.84 63.1045 1246.29 62.4206L1238.77 53H1219.98ZM1215.58 48.9038C1216.74 47.6848 1218.33 47 1219.98 47H1240.11C1240.97 47 1241.77 47.3955 1242.32 48.0794L1249.85 57.5H1277.02C1278.67 57.5 1280.26 58.1848 1281.42 59.4038C1282.59 60.6228 1283.25 62.2761 1283.25 64V109.5C1283.25 111.224 1282.59 112.877 1281.42 114.096C1280.26 115.315 1278.67 116 1277.02 116H1219.98C1218.33 116 1216.74 115.315 1215.58 114.096C1214.41 112.877 1213.75 111.224 1213.75 109.5V53.5C1213.75 51.7761 1214.41 50.1228 1215.58 48.9038Z" fill="white"/>
<path fill-rule="evenodd" clip-rule="evenodd" d="M1244.16 75.5251C1245.47 76.892 1245.47 79.108 1244.16 80.4749L1238.15 86.75L1244.16 93.0251C1245.47 94.392 1245.47 96.608 1244.16 97.9749C1242.85 99.3417 1240.73 99.3417 1239.42 97.9749L1231.03 89.2249C1229.72 87.858 1229.72 85.642 1231.03 84.2751L1239.42 75.5251C1240.73 74.1583 1242.85 74.1583 1244.16 75.5251Z" fill="white"/>
<path fill-rule="evenodd" clip-rule="evenodd" d="M1252.12 97.9749C1250.81 96.608 1250.81 94.392 1252.12 93.0251L1258.13 86.75L1252.12 80.4749C1250.81 79.108 1250.81 76.892 1252.12 75.5251C1253.43 74.1583 1255.55 74.1583 1256.86 75.5251L1265.25 84.2751C1266.56 85.642 1266.56 87.858 1265.25 89.2249L1256.86 97.9749C1255.55 99.3417 1253.43 99.3417 1252.12 97.9749Z" fill="white"/>
</svg>
